<svg viewBox="-1 -1 102 102" width="512" height="512" xmlns="http://www.w3.org/2000/svg" xmlns:c2pa="http://c2pa.org/manifest"><metadata><c2pa:manifest>AAAWgmp1bWIAAAAeanVtZGMycGEAEQAQgAAAqgA4m3EDYzJwYQAAABZcanVtYgAAAEdqdW1kYzJtYQARABCAAACqADibcQN1cm46YzJwYTpjYzVlZThiOS03NGU0LTRiZWMtYWJlYy1kY2E5NzdmMTAwNGMAAAADl2p1bWIAAAApanVtZGMyYXMAEQAQgAAAqgA4m3EDYzJwYS5hc3NlcnRpb25zAAAAALxqdW1iAAAARGp1bWRjYm9yABEAEIAAAKoAOJtxE2MycGEuaW5ncmVkaWVudC52MwAAAAAYYzJzaBKQuBD2BB/KEcHFNS+cHIwAAABwY2JvcqNpZGM6Zm9ybWF0bWltYWdlL3N2Zyt4bWxqaW5zdGFuY2VJRHgseG1wOmlpZDo4MmQ4NGFkYy1kZmVmLTRlNjUtODBlMi03ZWE0NzJkZmRiMjBscmVsYXRpb25zaGlwaHBhcmVudE9mAAAB4mp1bWIAAABBanVtZGNib3IAEQAQgAAAqgA4m3ETYzJwYS5hY3Rpb25zLnYyAAAAABhjMnNoJwiIfe+sPwSvFIG5AYgx+QAAAZljYm9yomdhY3Rpb25zgqJmYWN0aW9ua2MycGEub3BlbmVkanBhcmFtZXRlcnOha2luZ3JlZGllbnRzgaJjdXJseC1zZWxmI2p1bWJmPWMycGEuYXNzZXJ0aW9ucy9jMnBhLmluZ3JlZGllbnQudjNkaGFzaFgg94nwceOpG22ntbxuoyXepUhRDqSpkahe+XrqIEcH+fekZmFjdGlvbngdY29tLmFudGhyb3BpYy5jbGF1ZGUucHJvdmlkZWRqcGFyYW1ldGVyc6F4H2NvbS5hbnRocm9waWMub3JpZ2luLWNvbmZpZGVuY2VndW5rbm93bmtkZXNjcmlwdGlvbnhmQ2xhdWRlIHByb3ZpZGVkIHRoaXMgZmlsZSBhdCB0aGUgcmVxdWVzdCBvZiBhIHVzZXIgYW5kIG1heSBoYXZlIGNyZWF0ZWQgb3IgbW9kaWZpZWQgdGhlIGZpbGUgY29udGVudHMubXNvZnR3YXJlQWdlbnShZG5hbWVmQ2xhdWRlcmFsbEFjdGlvbnNJbmNsdWRlZPUAAADIanVtYgAAAEBqdW1kY2JvcgARABCAAACqADibcRNjMnBhLmhhc2guZGF0YQAAAAAYYzJzaO/JXXxwjbMF9v4gxHhGKXcAAACAY2JvcqVjYWxnZnNoYTI1NmNwYWRNAAAAAAAAAAAAAAAAAGRoYXNoWCCilSS6zsYFoAEqEHc3HoSYeW3N2BDSN0KfSjkhO5Cq42RuYW1lbmp1bWJmIG1hbmlmZXN0amV4Y2x1c2lvbnOBomVzdGFydBiYZmxlbmd0aBkeBAAAAj5qdW1iAAAAJ2p1bWRjMmNsABEAEIAAAKoAOJtxA2MycGEuY2xhaW0udjIAAAACD2Nib3KlY2FsZ2ZzaGEyNTZpc2lnbmF0dXJleE1zZWxmI2p1bWJmPS9jMnBhL3VybjpjMnBhOmNjNWVlOGI5LTc0ZTQtNGJlYy1hYmVjLWRjYTk3N2YxMDA0Yy9jMnBhLnNpZ25hdHVyZWppbnN0YW5jZUlEeCx4bXA6aWlkOjg0NTE5YWY5LTY2M2ItNGEwZi1iYzRkLTk0MzJkYzk5ZjQxZHJjcmVhdGVkX2Fzc2VydGlvbnODomN1cmx4LXNlbGYjanVtYmY9YzJwYS5hc3NlcnRpb25zL2MycGEuaW5ncmVkaWVudC52M2RoYXNoWCD3ifBx46kbbae1vG6jJd6lSFEOpKmRqF75euogRwf596JjdXJseCpzZWxmI2p1bWJmPWMycGEuYXNzZXJ0aW9ucy9jMnBhLmFjdGlvbnMudjJkaGFzaFggNcWGVS4Np1Iab5wnu4HHMFWALcTupzZoCgzrcw8+0kKiY3VybHgpc2VsZiNqdW1iZj1jMnBhLmFzc2VydGlvbnMvYzJwYS5oYXNoLmRhdGFkaGFzaFgg7gzUbiBhOf+ddHdHmtO+5Ypce8BBeBjErScm5F9A20h0Y2xhaW1fZ2VuZXJhdG9yX2luZm+jZG5hbWVvQW50aHJvcGljIEZpbGVzZ3ZlcnNpb25lMS4wLjBrc3BlY1ZlcnNpb25lMi40LjAAABA4anVtYgAAAChqdW1kYzJjcwARABCAAACqADibcQNjMnBhLnNpZ25hdHVyZQAAABAIY2JvctKEWQISogEmGCFZAgowggIGMIIBjaADAgECAhRA5aAK7sI50L64g/oGQgU9Z1UTADAKBggqhkjOPQQDAzBJMRcwFQYDVQQKEw5BbnRocm9waWMsIFBCQzEuMCwGA1UEAxMlQW50aHJvcGljIENvbnRlbnQgQ3JlZGVudGlhbHMgUm9vdCBDQTAeFw0yNjA4MDcxODQzNTZaFw0yODA4MDYxOTQzNTZaMEQxFzAVBgNVBAoTDkFudGhyb3BpYywgUEJDMSkwJwYDVQQDEyBBbnRocm9waWMgQ2xhdWRlIENvbnRlbnQgU2lnbmluZzBZMBMGByqGSM49AgEGCCqGSM49AwEHA0IABJh6CmvLUBgFFNU0vUKlOVtE6djd17L5SuwX0LemFisBM3dkd/3cyjxFA3Qo5S46fX0/ihY0VZ7mfb9KF703t5OjWDBWMA4GA1UdDwEB/wQEAwIHgDAVBgNVHSUEDjAMBgorBgEEAYPoXgIBMAwGA1UdEwEB/wQCMAAwHwYDVR0jBBgwFoAUzlHiBIFOZFsj+OPEz5o+nMHXXMIwCgYIKoZIzj0EAwMDZwAwZAIwMXMdFJ4BetLLVY7ORuE9noqbbAZOZn/aArXyTwFAZfKrPzxF2vPoJNf1+UCdg1XGAjBwX1zd9WGqYkqmL5SFqw1QySjr1zJfpJM9+1rdDwSPLMOPOjKuiXjoU/pUUeG9RwmhY3BhZFkNngAAAAAAAAAAAAAAAAAAAAAAAAAAAAAAAAAAAAAAAAAAAAAAAAAAAAAAAAAAAAAAAAAAAAAAAAAAAAAAAAAAAAAAAAAAAAAAAAAAAAAAAAAAAAAAAAAAAAAAAAAAAAAAAAAAAAAAAAAAAAAAAAAAAAAAAAAAAAAAAAAAAAAAAAAAAAAAAAAAAAAAAAAAAAAAAAAAAAAAAAAAAAAAAAAAAAAAAAAAAAAAAAAAAAAAAAAAAAAAAAAAAAAAAAAAAAAAAAAAAAAAAAAAAAAAAAAAAAAAAAAAAAAAAAAAAAAAAAAAAAAAAAAAAAAAAAAAAAAAAAAAAAAAAAAAAAAAAAAAAAAAAAAAAAAAAAAAAAAAAAAAAAAAAAAAAAAAAAAAAAAAAAAAAAAAAAAAAAAAAAAAAAAAAAAAAAAAAAAAAAAAAAAAAAAAAAAAAAAAAAAAAAAAAAAAAAAAAAAAAAAAAAAAAAAAAAAAAAAAAAAAAAAAAAAAAAAAAAAAAAAAAAAAAAAAAAAAAAAAAAAAAAAAAAAAAAAAAAAAAAAAAAAAAAAAAAAAAAAAAAAAAAAAAAAAAAAAAAAAAAAAAAAAAAAAAAAAAAAAAAAAAAAAAAAAAAAAAAAAAAAAAAAAAAAAAAAAAAAAAAAAAAAAAAAAAAAAAAAAAAAAAAAAAAAAAAAAAAAAAAAAAAAAAAAAAAAAAAAAAAAAAAAAAAAAAAAAAAAAAAAAAAAAAAAAAAAAAAAAAAAAAAAAAAAAAAAAAAAAAAAAAAAAAAAAAAAAAAAAAAAAAAAAAAAAAAAAAAAAAAAAAAAAAAAAAAAAAAAAAAAAAAAAAAAAAAAAAAAAAAAAAAAAAAAAAAAAAAAAAAAAAAAAAAAAAAAAAAAAAAAAAAAAAAAAAAAAAAAAAAAAAAAAAAAAAAAAAAAAAAAAAAAAAAAAAAAAAAAAAAAAAAAAAAAAAAAAAAAAAAAAAAAAAAAAAAAAAAAAAAAAAAAAAAAAAAAAAAAAAAAAAAAAAAAAAAAAAAAAAAAAAAAAAAAAAAAAAAAAAAAAAAAAAAAAAAAAAAAAAAAAAAAAAAAAAAAAAAAAAAAAAAAAAAAAAAAAAAAAAAAAAAAAAAAAAAAAAAAAAAAAAAAAAAAAAAAAAAAAAAAAAAAAAAAAAAAAAAAAAAAAAAAAAAAAAAAAAAAAAAAAAAAAAAAAAAAAAAAAAAAAAAAAAAAAAAAAAAAAAAAAAAAAAAAAAAAAAAAAAAAAAAAAAAAAAAAAAAAAAAAAAAAAAAAAAAAAAAAAAAAAAAAAAAAAAAAAAAAAAAAAAAAAAAAAAAAAAAAAAAAAAAAAAAAAAAAAAAAAAAAAAAAAAAAAAAAAAAAAAAAAAAAAAAAAAAAAAAAAAAAAAAAAAAAAAAAAAAAAAAAAAAAAAAAAAAAAAAAAAAAAAAAAAAAAAAAAAAAAAAAAAAAAAAAAAAAAAAAAAAAAAAAAAAAAAAAAAAAAAAAAAAAAAAAAAAAAAAAAAAAAAAAAAAAAAAAAAAAAAAAAAAAAAAAAAAAAAAAAAAAAAAAAAAAAAAAAAAAAAAAAAAAAAAAAAAAAAAAAAAAAAAAAAAAAAAAAAAAAAAAAAAAAAAAAAAAAAAAAAAAAAAAAAAAAAAAAAAAAAAAAAAAAAAAAAAAAAAAAAAAAAAAAAAAAAAAAAAAAAAAAAAAAAAAAAAAAAAAAAAAAAAAAAAAAAAAAAAAAAAAAAAAAAAAAAAAAAAAAAAAAAAAAAAAAAAAAAAAAAAAAAAAAAAAAAAAAAAAAAAAAAAAAAAAAAAAAAAAAAAAAAAAAAAAAAAAAAAAAAAAAAAAAAAAAAAAAAAAAAAAAAAAAAAAAAAAAAAAAAAAAAAAAAAAAAAAAAAAAAAAAAAAAAAAAAAAAAAAAAAAAAAAAAAAAAAAAAAAAAAAAAAAAAAAAAAAAAAAAAAAAAAAAAAAAAAAAAAAAAAAAAAAAAAAAAAAAAAAAAAAAAAAAAAAAAAAAAAAAAAAAAAAAAAAAAAAAAAAAAAAAAAAAAAAAAAAAAAAAAAAAAAAAAAAAAAAAAAAAAAAAAAAAAAAAAAAAAAAAAAAAAAAAAAAAAAAAAAAAAAAAAAAAAAAAAAAAAAAAAAAAAAAAAAAAAAAAAAAAAAAAAAAAAAAAAAAAAAAAAAAAAAAAAAAAAAAAAAAAAAAAAAAAAAAAAAAAAAAAAAAAAAAAAAAAAAAAAAAAAAAAAAAAAAAAAAAAAAAAAAAAAAAAAAAAAAAAAAAAAAAAAAAAAAAAAAAAAAAAAAAAAAAAAAAAAAAAAAAAAAAAAAAAAAAAAAAAAAAAAAAAAAAAAAAAAAAAAAAAAAAAAAAAAAAAAAAAAAAAAAAAAAAAAAAAAAAAAAAAAAAAAAAAAAAAAAAAAAAAAAAAAAAAAAAAAAAAAAAAAAAAAAAAAAAAAAAAAAAAAAAAAAAAAAAAAAAAAAAAAAAAAAAAAAAAAAAAAAAAAAAAAAAAAAAAAAAAAAAAAAAAAAAAAAAAAAAAAAAAAAAAAAAAAAAAAAAAAAAAAAAAAAAAAAAAAAAAAAAAAAAAAAAAAAAAAAAAAAAAAAAAAAAAAAAAAAAAAAAAAAAAAAAAAAAAAAAAAAAAAAAAAAAAAAAAAAAAAAAAAAAAAAAAAAAAAAAAAAAAAAAAAAAAAAAAAAAAAAAAAAAAAAAAAAAAAAAAAAAAAAAAAAAAAAAAAAAAAAAAAAAAAAAAAAAAAAAAAAAAAAAAAAAAAAAAAAAAAAAAAAAAAAAAAAAAAAAAAAAAAAAAAAAAAAAAAAAAAAAAAAAAAAAAAAAAAAAAAAAAAAAAAAAAAAAAAAAAAAAAAAAAAAAAAAAAAAAAAAAAAAAAAAAAAAAAAAAAAAAAAAAAAAAAAAAAAAAAAAAAAAAAAAAAAAAAAAAAAAAAAAAAAAAAAAAAAAAAAAAAAAAAAAAAAAAAAAAAAAAAAAAAAAAAAAAAAAAAAAAAAAAAAAAAAAAAAAAAAAAAAAAAAAAAAAAAAAAAAAAAAAAAAAAAAAAAAAAAAAAAAAAAAAAAAAAAAAAAAAAAAAAAAAAAAAAAAAAAAAAAAAAAAAAAAAAAAAAAAAAAAAAAAAAAAAAAAAAAAAAAAAAAAAAAAAAAAAAAAAAAAAAAAAAAAAAAAAAAAAAAAAAAAAAAAAAAAAAAAAAAAAAAAAAAAAAAAAAAAAAAAAAAAAAAAAAAAAAAAAAAAAAAAAAAAAAAAAAAAAAAAAAAAAAAAAAAAAAAAAAAAAAAAAAAAAAAAAAAAAAAAAAAAAAAAAAAAAAAAAAAAAAAAAAAAAAAAAAAAAAAAAAAAAAAAAAAAAAAAAAAAAAAAAAAAAAAAAAAAAAAAAAAAAAAAAAAAAAAAAAAAAAAAAAAAAAAAAAAAAAAAAAAAAAAAAAAAAAAAAAAAAAAAAAAAAAAAAAAAAAAAAAAAAAAAAAAAAAAAAAAAAAAAAAAAAAAAAAAAAAAAAAAAAAAAAAAAAAAAAAAAAAAAAAAAAAAAAAAAAAAAAAAAAAAAAAAAAAAAAAAAAAAAAAAAAAAAAAAAAAAAAAAAAAAAAAAAAAAAAAAAAAAAAAAAAAAAAAAAAAAAAAAAAAAAAAAAAAAAAAAAAAAAAAAAAAAAAAAAAAAAAAAAAAAAAAAAAAAAAAAAAAAAAAAAAAAAAAAAAAAAAAAAAAAAAAAAAAAAAAAAAAAAAAAAAAAAAAAAAAAAAAAAAAAAAAAAAAAAAAAAAAAAAAAAAAAAAAAAAAAAAAAAAAAAAAAAAAAAAAAAAAAAAAAAAAAAAAAAAAAAAAAAAAAAAAAAAAAAAAAAAAAAAAAAAAAAAAAAAAAAAAAAAAAAAAAAAAAAAAAAAAAAAAAAAAAAAAAAAAAAAAAAAAAAAAAAAAAAAAAAAAAAAAAAAAAAAAAAAAAAAAAAAAAAAAAAAAAAAAAAAAAAAAAAAAAAAAAAAAAAAAAAAAAAAAAAAAAAAAAAAAAAAAAAAAAAAAAAAAAAAAAAAAAAAAAAAAAAAAAAAAAAAAAAAAAAAAAAAAAAAAAAAAAAAAAAAAAAAAAAAAAAAAAAAAAAAAAAAAAAAAAAAAAAAAAAAAAAAAAAAAAAAAAAAAAAAAAAAAAAAAAAAAAAAAAAAAAAAAAAAAAAAAAAAAAAAAAAAAAAAAAAAAAAAAAAAAAAAAAAAAAAAAAAAAAAAAAAAAAAAAAAAAAAAAAAAAAAAAAAAAAAAAAAAAAAAAAAAAAAAAAAAAAAAAAAAAAAAAAAAAAAAAAAAAAAAAAAAAAAAAAAAAAAAAAAAAAAAAAAAAAAAAAAAAAAAAAAAAAAAAAAAAAAAAAAAAAAAAAAAAAAAAAAAAAAAAAAAAAAAAAAAAAAAAAAAAAAAAAAAAAAAAAAAAAAAAAAAAAAAAAAAAAAAAAAAAAAAAAAAAAAAAAAAAAAAAAAAAAAAAAAAAAAAAAAAAAAAAAAAAAAAAAAAAAAAAAAAAAAAAAAAAAAAAAAAAAAAAAAAAAAAAAAAAAAAAAAAAAAAAAAAAAAAAAAAAAAAAAAAAAAAAAAAAAAAAAAAAAAAAAAAAAAAAAAAAAAAAAAAAAAAAAAAAAAAAAAAAAAAAAAAAAAAAAAAAAAAAAAAAAAAAAAAAAAAAAAAAAAAAAAAAAAPZYQEs9o2aCDQV0FrfoLJnR5XZB9RzTiWrBF5P2gMVL4Nrbdcd/M5U2MnYM/+ZdisVzPxxRbko1PFGmTyqZxzDFpfE=</c2pa:manifest></metadata><path d="M 6 0 L 100 0 L 100 84 L 84 100 L 0 100 L 0 6 A 6 6 0 0 1 6 0 Z" fill="#0B0B0B"></path><defs><clipPath id="t13"><path d="M -300 -300 L 1382 -300 L -300 1382 Z"></path></clipPath><clipPath id="b14"><path d="M 1382 -300 L 1382 1382 L -300 1382 Z"></path></clipPath></defs><g transform="translate(15.650625 15.650625) scale(0.0635)"><g clip-path="url(#t13)"><path d="M 475.75 222.25 L 302.75 49.25 L 80.75 49.25 A 59.5 59.5 0 0 0 21.25 108.75 L 21.25 332.25 L 352.75 663.75 L 475.75 540.75 L 231.25 296.25 C 195.64 260.64 209.72 254.75 221.25 254.75 L 443.25 254.75 Z M 859.75 475.75 L 1032.75 302.75 L 1032.75 80.75 A 59.5 59.5 0 0 0 973.25 21.25 L 749.75 21.25 L 418.25 352.75 L 541.25 475.75 L 785.75 231.25 C 821.36 195.64 827.25 209.72 827.25 221.25 L 827.25 443.25 Z M 606.25 859.75 L 779.25 1032.75 L 1001.25 1032.75 A 59.5 59.5 0 0 0 1060.75 973.25 L 1060.75 749.75 L 729.25 418.25 L 606.25 541.25 L 850.75 785.75 C 886.36 821.36 872.28 827.25 860.75 827.25 L 638.75 827.25 Z M 222.25 606.25 L 49.25 779.25 L 49.25 1001.25 A 59.5 59.5 0 0 0 108.75 1060.75 L 332.25 1060.75 L 663.75 729.25 L 540.75 606.25 L 296.25 850.75 C 260.64 886.36 254.75 872.28 254.75 860.75 L 254.75 638.75 Z" fill="#F97096"></path></g><g clip-path="url(#b14)"><defs><clipPath id="mm12"><path d="M 475.75 222.25 L 302.75 49.25 L 80.75 49.25 A 59.5 59.5 0 0 0 21.25 108.75 L 21.25 332.25 L 352.75 663.75 L 475.75 540.75 L 231.25 296.25 C 195.64 260.64 209.72 254.75 221.25 254.75 L 443.25 254.75 Z M 859.75 475.75 L 1032.75 302.75 L 1032.75 80.75 A 59.5 59.5 0 0 0 973.25 21.25 L 749.75 21.25 L 418.25 352.75 L 541.25 475.75 L 785.75 231.25 C 821.36 195.64 827.25 209.72 827.25 221.25 L 827.25 443.25 Z M 606.25 859.75 L 779.25 1032.75 L 1001.25 1032.75 A 59.5 59.5 0 0 0 1060.75 973.25 L 1060.75 749.75 L 729.25 418.25 L 606.25 541.25 L 850.75 785.75 C 886.36 821.36 872.28 827.25 860.75 827.25 L 638.75 827.25 Z M 222.25 606.25 L 49.25 779.25 L 49.25 1001.25 A 59.5 59.5 0 0 0 108.75 1060.75 L 332.25 1060.75 L 663.75 729.25 L 540.75 606.25 L 296.25 850.75 C 260.64 886.36 254.75 872.28 254.75 860.75 L 254.75 638.75 Z"></path></clipPath></defs><path d="M 475.75 222.25 L 302.75 49.25 L 80.75 49.25 A 59.5 59.5 0 0 0 21.25 108.75 L 21.25 332.25 L 352.75 663.75 L 475.75 540.75 L 231.25 296.25 C 195.64 260.64 209.72 254.75 221.25 254.75 L 443.25 254.75 Z M 859.75 475.75 L 1032.75 302.75 L 1032.75 80.75 A 59.5 59.5 0 0 0 973.25 21.25 L 749.75 21.25 L 418.25 352.75 L 541.25 475.75 L 785.75 231.25 C 821.36 195.64 827.25 209.72 827.25 221.25 L 827.25 443.25 Z M 606.25 859.75 L 779.25 1032.75 L 1001.25 1032.75 A 59.5 59.5 0 0 0 1060.75 973.25 L 1060.75 749.75 L 729.25 418.25 L 606.25 541.25 L 850.75 785.75 C 886.36 821.36 872.28 827.25 860.75 827.25 L 638.75 827.25 Z M 222.25 606.25 L 49.25 779.25 L 49.25 1001.25 A 59.5 59.5 0 0 0 108.75 1060.75 L 332.25 1060.75 L 663.75 729.25 L 540.75 606.25 L 296.25 850.75 C 260.64 886.36 254.75 872.28 254.75 860.75 L 254.75 638.75 Z" fill="#F97096" fill-opacity="0.1"></path><g clip-path="url(#mm12)"><rect x="0.0" y="0.0" width="8.0" height="1082.0" fill="#F97096"></rect><rect x="0.0" y="0.0" width="1082.0" height="8.0" fill="#F97096"></rect><rect x="86.0" y="0.0" width="8.0" height="1082.0" fill="#F97096"></rect><rect x="0.0" y="86.0" width="1082.0" height="8.0" fill="#F97096"></rect><rect x="172.0" y="0.0" width="8.0" height="1082.0" fill="#F97096"></rect><rect x="0.0" y="172.0" width="1082.0" height="8.0" fill="#F97096"></rect><rect x="258.0" y="0.0" width="8.0" height="1082.0" fill="#F97096"></rect><rect x="0.0" y="258.0" width="1082.0" height="8.0" fill="#F97096"></rect><rect x="344.0" y="0.0" width="8.0" height="1082.0" fill="#F97096"></rect><rect x="0.0" y="344.0" width="1082.0" height="8.0" fill="#F97096"></rect><rect x="430.0" y="0.0" width="8.0" height="1082.0" fill="#F97096"></rect><rect x="0.0" y="430.0" width="1082.0" height="8.0" fill="#F97096"></rect><rect x="516.0" y="0.0" width="8.0" height="1082.0" fill="#F97096"></rect><rect x="0.0" y="516.0" width="1082.0" height="8.0" fill="#F97096"></rect><rect x="602.0" y="0.0" width="8.0" height="1082.0" fill="#F97096"></rect><rect x="0.0" y="602.0" width="1082.0" height="8.0" fill="#F97096"></rect><rect x="688.0" y="0.0" width="8.0" height="1082.0" fill="#F97096"></rect><rect x="0.0" y="688.0" width="1082.0" height="8.0" fill="#F97096"></rect><rect x="774.0" y="0.0" width="8.0" height="1082.0" fill="#F97096"></rect><rect x="0.0" y="774.0" width="1082.0" height="8.0" fill="#F97096"></rect><rect x="860.0" y="0.0" width="8.0" height="1082.0" fill="#F97096"></rect><rect x="0.0" y="860.0" width="1082.0" height="8.0" fill="#F97096"></rect><rect x="946.0" y="0.0" width="8.0" height="1082.0" fill="#F97096"></rect><rect x="0.0" y="946.0" width="1082.0" height="8.0" fill="#F97096"></rect><rect x="1032.0" y="0.0" width="8.0" height="1082.0" fill="#F97096"></rect><rect x="0.0" y="1032.0" width="1082.0" height="8.0" fill="#F97096"></rect></g><path d="M 475.75 222.25 L 302.75 49.25 L 80.75 49.25 A 59.5 59.5 0 0 0 21.25 108.75 L 21.25 332.25 L 352.75 663.75 L 475.75 540.75 L 231.25 296.25 C 195.64 260.64 209.72 254.75 221.25 254.75 L 443.25 254.75 Z M 859.75 475.75 L 1032.75 302.75 L 1032.75 80.75 A 59.5 59.5 0 0 0 973.25 21.25 L 749.75 21.25 L 418.25 352.75 L 541.25 475.75 L 785.75 231.25 C 821.36 195.64 827.25 209.72 827.25 221.25 L 827.25 443.25 Z M 606.25 859.75 L 779.25 1032.75 L 1001.25 1032.75 A 59.5 59.5 0 0 0 1060.75 973.25 L 1060.75 749.75 L 729.25 418.25 L 606.25 541.25 L 850.75 785.75 C 886.36 821.36 872.28 827.25 860.75 827.25 L 638.75 827.25 Z M 222.25 606.25 L 49.25 779.25 L 49.25 1001.25 A 59.5 59.5 0 0 0 108.75 1060.75 L 332.25 1060.75 L 663.75 729.25 L 540.75 606.25 L 296.25 850.75 C 260.64 886.36 254.75 872.28 254.75 860.75 L 254.75 638.75 Z" fill="none" stroke="#F97096" stroke-width="14"></path></g></g></svg>