<svg viewBox="-1 -1 102 102" width="512" height="512" xmlns="http://www.w3.org/2000/svg" xmlns:c2pa="http://c2pa.org/manifest"><metadata><c2pa:manifest>AAAWgmp1bWIAAAAeanVtZGMycGEAEQAQgAAAqgA4m3EDYzJwYQAAABZcanVtYgAAAEdqdW1kYzJtYQARABCAAACqADibcQN1cm46YzJwYTo1OTJhNjJhZi01NWYyLTQ1ZjktOTIyOS00MzZiMTVlYzRlNmUAAAADl2p1bWIAAAApanVtZGMyYXMAEQAQgAAAqgA4m3EDYzJwYS5hc3NlcnRpb25zAAAAALxqdW1iAAAARGp1bWRjYm9yABEAEIAAAKoAOJtxE2MycGEuaW5ncmVkaWVudC52MwAAAAAYYzJzaDl1FfeZztpzWfcFscPc8WwAAABwY2JvcqNpZGM6Zm9ybWF0bWltYWdlL3N2Zyt4bWxqaW5zdGFuY2VJRHgseG1wOmlpZDo1NmQ1YjlmOC04ZjIwLTQ4ZjMtYmFkZC0xMjMwZjdlMWE4NWZscmVsYXRpb25zaGlwaHBhcmVudE9mAAAB4mp1bWIAAABBanVtZGNib3IAEQAQgAAAqgA4m3ETYzJwYS5hY3Rpb25zLnYyAAAAABhjMnNoXPX/4MbQ0BZtAuOA/i7EiwAAAZljYm9yomdhY3Rpb25zgqJmYWN0aW9ua2MycGEub3BlbmVkanBhcmFtZXRlcnOha2luZ3JlZGllbnRzgaJjdXJseC1zZWxmI2p1bWJmPWMycGEuYXNzZXJ0aW9ucy9jMnBhLmluZ3JlZGllbnQudjNkaGFzaFggYqv1j92CZzxHehDmMCL7s3Jcj+F2QkQcudBCXgpMAomkZmFjdGlvbngdY29tLmFudGhyb3BpYy5jbGF1ZGUucHJvdmlkZWRqcGFyYW1ldGVyc6F4H2NvbS5hbnRocm9waWMub3JpZ2luLWNvbmZpZGVuY2VndW5rbm93bmtkZXNjcmlwdGlvbnhmQ2xhdWRlIHByb3ZpZGVkIHRoaXMgZmlsZSBhdCB0aGUgcmVxdWVzdCBvZiBhIHVzZXIgYW5kIG1heSBoYXZlIGNyZWF0ZWQgb3IgbW9kaWZpZWQgdGhlIGZpbGUgY29udGVudHMubXNvZnR3YXJlQWdlbnShZG5hbWVmQ2xhdWRlcmFsbEFjdGlvbnNJbmNsdWRlZPUAAADIanVtYgAAAEBqdW1kY2JvcgARABCAAACqADibcRNjMnBhLmhhc2guZGF0YQAAAAAYYzJzaGGwbvOAmOo4pDO8xNmH1oUAAACAY2JvcqVjYWxnZnNoYTI1NmNwYWRNAAAAAAAAAAAAAAAAAGRoYXNoWCDRmlXtmYa34M2A7HMto63Kd5+PqYEn4aDLY1A/BT7OpGRuYW1lbmp1bWJmIG1hbmlmZXN0amV4Y2x1c2lvbnOBomVzdGFydBiYZmxlbmd0aBkeBAAAAj5qdW1iAAAAJ2p1bWRjMmNsABEAEIAAAKoAOJtxA2MycGEuY2xhaW0udjIAAAACD2Nib3KlY2FsZ2ZzaGEyNTZpc2lnbmF0dXJleE1zZWxmI2p1bWJmPS9jMnBhL3VybjpjMnBhOjU5MmE2MmFmLTU1ZjItNDVmOS05MjI5LTQzNmIxNWVjNGU2ZS9jMnBhLnNpZ25hdHVyZWppbnN0YW5jZUlEeCx4bXA6aWlkOmViM2U5NGYxLTUwZTUtNGEyYy1hZjdhLTAyZmRlNDFlOTllZnJjcmVhdGVkX2Fzc2VydGlvbnODomN1cmx4LXNlbGYjanVtYmY9YzJwYS5hc3NlcnRpb25zL2MycGEuaW5ncmVkaWVudC52M2RoYXNoWCBiq/WP3YJnPEd6EOYwIvuzclyP4XZCRBy50EJeCkwCiaJjdXJseCpzZWxmI2p1bWJmPWMycGEuYXNzZXJ0aW9ucy9jMnBhLmFjdGlvbnMudjJkaGFzaFgg5WezPJG6IEiNRVZZmrOOuIo8Irev2V9XoOmgE07B9LWiY3VybHgpc2VsZiNqdW1iZj1jMnBhLmFzc2VydGlvbnMvYzJwYS5oYXNoLmRhdGFkaGFzaFggN7UVCaF6aCaP9bTN657y4Ak7ekt7oqEZrEU4/ruNHul0Y2xhaW1fZ2VuZXJhdG9yX2luZm+jZG5hbWVvQW50aHJvcGljIEZpbGVzZ3ZlcnNpb25lMS4wLjBrc3BlY1ZlcnNpb25lMi40LjAAABA4anVtYgAAAChqdW1kYzJjcwARABCAAACqADibcQNjMnBhLnNpZ25hdHVyZQAAABAIY2JvctKEWQISogEmGCFZAgowggIGMIIBjaADAgECAhRA5aAK7sI50L64g/oGQgU9Z1UTADAKBggqhkjOPQQDAzBJMRcwFQYDVQQKEw5BbnRocm9waWMsIFBCQzEuMCwGA1UEAxMlQW50aHJvcGljIENvbnRlbnQgQ3JlZGVudGlhbHMgUm9vdCBDQTAeFw0yNjA4MDcxODQzNTZaFw0yODA4MDYxOTQzNTZaMEQxFzAVBgNVBAoTDkFudGhyb3BpYywgUEJDMSkwJwYDVQQDEyBBbnRocm9waWMgQ2xhdWRlIENvbnRlbnQgU2lnbmluZzBZMBMGByqGSM49AgEGCCqGSM49AwEHA0IABJh6CmvLUBgFFNU0vUKlOVtE6djd17L5SuwX0LemFisBM3dkd/3cyjxFA3Qo5S46fX0/ihY0VZ7mfb9KF703t5OjWDBWMA4GA1UdDwEB/wQEAwIHgDAVBgNVHSUEDjAMBgorBgEEAYPoXgIBMAwGA1UdEwEB/wQCMAAwHwYDVR0jBBgwFoAUzlHiBIFOZFsj+OPEz5o+nMHXXMIwCgYIKoZIzj0EAwMDZwAwZAIwMXMdFJ4BetLLVY7ORuE9noqbbAZOZn/aArXyTwFAZfKrPzxF2vPoJNf1+UCdg1XGAjBwX1zd9WGqYkqmL5SFqw1QySjr1zJfpJM9+1rdDwSPLMOPOjKuiXjoU/pUUeG9RwmhY3BhZFkNngAAAAAAAAAAAAAAAAAAAAAAAAAAAAAAAAAAAAAAAAAAAAAAAAAAAAAAAAAAAAAAAAAAAAAAAAAAAAAAAAAAAAAAAAAAAAAAAAAAAAAAAAAAAAAAAAAAAAAAAAAAAAAAAAAAAAAAAAAAAAAAAAAAAAAAAAAAAAAAAAAAAAAAAAAAAAAAAAAAAAAAAAAAAAAAAAAAAAAAAAAAAAAAAAAAAAAAAAAAAAAAAAAAAAAAAAAAAAAAAAAAAAAAAAAAAAAAAAAAAAAAAAAAAAAAAAAAAAAAAAAAAAAAAAAAAAAAAAAAAAAAAAAAAAAAAAAAAAAAAAAAAAAAAAAAAAAAAAAAAAAAAAAAAAAAAAAAAAAAAAAAAAAAAAAAAAAAAAAAAAAAAAAAAAAAAAAAAAAAAAAAAAAAAAAAAAAAAAAAAAAAAAAAAAAAAAAAAAAAAAAAAAAAAAAAAAAAAAAAAAAAAAAAAAAAAAAAAAAAAAAAAAAAAAAAAAAAAAAAAAAAAAAAAAAAAAAAAAAAAAAAAAAAAAAAAAAAAAAAAAAAAAAAAAAAAAAAAAAAAAAAAAAAAAAAAAAAAAAAAAAAAAAAAAAAAAAAAAAAAAAAAAAAAAAAAAAAAAAAAAAAAAAAAAAAAAAAAAAAAAAAAAAAAAAAAAAAAAAAAAAAAAAAAAAAAAAAAAAAAAAAAAAAAAAAAAAAAAAAAAAAAAAAAAAAAAAAAAAAAAAAAAAAAAAAAAAAAAAAAAAAAAAAAAAAAAAAAAAAAAAAAAAAAAAAAAAAAAAAAAAAAAAAAAAAAAAAAAAAAAAAAAAAAAAAAAAAAAAAAAAAAAAAAAAAAAAAAAAAAAAAAAAAAAAAAAAAAAAAAAAAAAAAAAAAAAAAAAAAAAAAAAAAAAAAAAAAAAAAAAAAAAAAAAAAAAAAAAAAAAAAAAAAAAAAAAAAAAAAAAAAAAAAAAAAAAAAAAAAAAAAAAAAAAAAAAAAAAAAAAAAAAAAAAAAAAAAAAAAAAAAAAAAAAAAAAAAAAAAAAAAAAAAAAAAAAAAAAAAAAAAAAAAAAAAAAAAAAAAAAAAAAAAAAAAAAAAAAAAAAAAAAAAAAAAAAAAAAAAAAAAAAAAAAAAAAAAAAAAAAAAAAAAAAAAAAAAAAAAAAAAAAAAAAAAAAAAAAAAAAAAAAAAAAAAAAAAAAAAAAAAAAAAAAAAAAAAAAAAAAAAAAAAAAAAAAAAAAAAAAAAAAAAAAAAAAAAAAAAAAAAAAAAAAAAAAAAAAAAAAAAAAAAAAAAAAAAAAAAAAAAAAAAAAAAAAAAAAAAAAAAAAAAAAAAAAAAAAAAAAAAAAAAAAAAAAAAAAAAAAAAAAAAAAAAAAAAAAAAAAAAAAAAAAAAAAAAAAAAAAAAAAAAAAAAAAAAAAAAAAAAAAAAAAAAAAAAAAAAAAAAAAAAAAAAAAAAAAAAAAAAAAAAAAAAAAAAAAAAAAAAAAAAAAAAAAAAAAAAAAAAAAAAAAAAAAAAAAAAAAAAAAAAAAAAAAAAAAAAAAAAAAAAAAAAAAAAAAAAAAAAAAAAAAAAAAAAAAAAAAAAAAAAAAAAAAAAAAAAAAAAAAAAAAAAAAAAAAAAAAAAAAAAAAAAAAAAAAAAAAAAAAAAAAAAAAAAAAAAAAAAAAAAAAAAAAAAAAAAAAAAAAAAAAAAAAAAAAAAAAAAAAAAAAAAAAAAAAAAAAAAAAAAAAAAAAAAAAAAAAAAAAAAAAAAAAAAAAAAAAAAAAAAAAAAAAAAAAAAAAAAAAAAAAAAAAAAAAAAAAAAAAAAAAAAAAAAAAAAAAAAAAAAAAAAAAAAAAAAAAAAAAAAAAAAAAAAAAAAAAAAAAAAAAAAAAAAAAAAAAAAAAAAAAAAAAAAAAAAAAAAAAAAAAAAAAAAAAAAAAAAAAAAAAAAAAAAAAAAAAAAAAAAAAAAAAAAAAAAAAAAAAAAAAAAAAAAAAAAAAAAAAAAAAAAAAAAAAAAAAAAAAAAAAAAAAAAAAAAAAAAAAAAAAAAAAAAAAAAAAAAAAAAAAAAAAAAAAAAAAAAAAAAAAAAAAAAAAAAAAAAAAAAAAAAAAAAAAAAAAAAAAAAAAAAAAAAAAAAAAAAAAAAAAAAAAAAAAAAAAAAAAAAAAAAAAAAAAAAAAAAAAAAAAAAAAAAAAAAAAAAAAAAAAAAAAAAAAAAAAAAAAAAAAAAAAAAAAAAAAAAAAAAAAAAAAAAAAAAAAAAAAAAAAAAAAAAAAAAAAAAAAAAAAAAAAAAAAAAAAAAAAAAAAAAAAAAAAAAAAAAAAAAAAAAAAAAAAAAAAAAAAAAAAAAAAAAAAAAAAAAAAAAAAAAAAAAAAAAAAAAAAAAAAAAAAAAAAAAAAAAAAAAAAAAAAAAAAAAAAAAAAAAAAAAAAAAAAAAAAAAAAAAAAAAAAAAAAAAAAAAAAAAAAAAAAAAAAAAAAAAAAAAAAAAAAAAAAAAAAAAAAAAAAAAAAAAAAAAAAAAAAAAAAAAAAAAAAAAAAAAAAAAAAAAAAAAAAAAAAAAAAAAAAAAAAAAAAAAAAAAAAAAAAAAAAAAAAAAAAAAAAAAAAAAAAAAAAAAAAAAAAAAAAAAAAAAAAAAAAAAAAAAAAAAAAAAAAAAAAAAAAAAAAAAAAAAAAAAAAAAAAAAAAAAAAAAAAAAAAAAAAAAAAAAAAAAAAAAAAAAAAAAAAAAAAAAAAAAAAAAAAAAAAAAAAAAAAAAAAAAAAAAAAAAAAAAAAAAAAAAAAAAAAAAAAAAAAAAAAAAAAAAAAAAAAAAAAAAAAAAAAAAAAAAAAAAAAAAAAAAAAAAAAAAAAAAAAAAAAAAAAAAAAAAAAAAAAAAAAAAAAAAAAAAAAAAAAAAAAAAAAAAAAAAAAAAAAAAAAAAAAAAAAAAAAAAAAAAAAAAAAAAAAAAAAAAAAAAAAAAAAAAAAAAAAAAAAAAAAAAAAAAAAAAAAAAAAAAAAAAAAAAAAAAAAAAAAAAAAAAAAAAAAAAAAAAAAAAAAAAAAAAAAAAAAAAAAAAAAAAAAAAAAAAAAAAAAAAAAAAAAAAAAAAAAAAAAAAAAAAAAAAAAAAAAAAAAAAAAAAAAAAAAAAAAAAAAAAAAAAAAAAAAAAAAAAAAAAAAAAAAAAAAAAAAAAAAAAAAAAAAAAAAAAAAAAAAAAAAAAAAAAAAAAAAAAAAAAAAAAAAAAAAAAAAAAAAAAAAAAAAAAAAAAAAAAAAAAAAAAAAAAAAAAAAAAAAAAAAAAAAAAAAAAAAAAAAAAAAAAAAAAAAAAAAAAAAAAAAAAAAAAAAAAAAAAAAAAAAAAAAAAAAAAAAAAAAAAAAAAAAAAAAAAAAAAAAAAAAAAAAAAAAAAAAAAAAAAAAAAAAAAAAAAAAAAAAAAAAAAAAAAAAAAAAAAAAAAAAAAAAAAAAAAAAAAAAAAAAAAAAAAAAAAAAAAAAAAAAAAAAAAAAAAAAAAAAAAAAAAAAAAAAAAAAAAAAAAAAAAAAAAAAAAAAAAAAAAAAAAAAAAAAAAAAAAAAAAAAAAAAAAAAAAAAAAAAAAAAAAAAAAAAAAAAAAAAAAAAAAAAAAAAAAAAAAAAAAAAAAAAAAAAAAAAAAAAAAAAAAAAAAAAAAAAAAAAAAAAAAAAAAAAAAAAAAAAAAAAAAAAAAAAAAAAAAAAAAAAAAAAAAAAAAAAAAAAAAAAAAAAAAAAAAAAAAAAAAAAAAAAAAAAAAAAAAAAAAAAAAAAAAAAAAAAAAAAAAAAAAAAAAAAAAAAAAAAAAAAAAAAAAAAAAAAAAAAAAAAAAAAAAAAAAAAAAAAAAAAAAAAAAAAAAAAAAAAAAAAAAAAAAAAAAAAAAAAAAAAAAAAAAAAAAAAAAAAAAAAAAAAAAAAAAAAAAAAAAAAAAAAAAAAAAAAAAAAAAAAAAAAAAAAAAAAAAAAAAAAAAAAAAAAAAAAAAAAAAAAAAAAAAAAAAAAAAAAAAAAAAAAAAAAAAAAAAAAAAAAAAAAAAAAAAAAAAAAAAAAAAAAAAAAAAAAAAAAAAAAAAAAAAAAAAAAAAAAAAAAAAAAAAAAAAAAAAAAAAAAAAAAAAAAAAAAAAAAAAAAAAAAAAAAAAAAAAAAAAAAAAAAAAAAAAAAAAAAAAAAAAAAAAAAAAAAAAAAAAAAAAAAAAAAAAAAAAAAAAAAAAAAAAAAAAAAAAAAAAAAAAAAAAAAAAAAAAAAAAAAAAAAAAAAAAAAAAAAAAAAAAAAAAAAAAAAAAAAAAAAAAAAAAAAAAAAAAAAAAAAAAAAAAAAAAAAAAAAAAAAAAAAAAAAAAAAAAAAAAAAAAAAAAAAAAAAAAAAAAAAAAAAAAAAAAAAAAAAAAAAAAAAAAAAAAAAAAAAAAAAAAAAAAAAAAAAAAAAAAAAAAAAAAAAAAAAAAAAAAAAAAAAAAAAAAAAAAAAAAAAAAAAAAAAAAAAAAAAAAAAAAAAAAAAAAAAAAAAAAAAAAAAAAAAAAAAAAAAAAAAAAAAAAAAAAAAAAAAAAAAAAAAAAAAAAAAAAAAAAAAAAAAAAAAAAAAAAAAAAAAAAAAAAAAAAAAAAAAAAAAAAAAAAAAAAAAAAAAAAAAAAAAAAAAAAAAAAAAAAAAAAAAAAAAAAAAAAAAAAAAAAAAAAAAAAAAAAAAAAAAAAAAAAAPZYQPPgDA158yiRNCXXdcE0W+R/+YKMsky42w59ZyPRRSCks99mfQc5qtWUsKh3JkhZ56WAUxAk0kAFZFRXaSTgoJM=</c2pa:manifest></metadata><path d="M 6 0 L 100 0 L 100 84 L 84 100 L 0 100 L 0 6 A 6 6 0 0 1 6 0 Z" fill="#0B0B0B"></path><defs><clipPath id="t148"><path d="M -300 -300 L 1382 -300 L -300 1382 Z"></path></clipPath><clipPath id="b149"><path d="M 1382 -300 L 1382 1382 L -300 1382 Z"></path></clipPath></defs><g transform="translate(15.650625 15.650625) scale(0.0635)"><g clip-path="url(#t148)"><path d="M 475.75 222.25 L 302.75 49.25 L 80.75 49.25 A 59.5 59.5 0 0 0 21.25 108.75 L 21.25 332.25 L 352.75 663.75 L 475.75 540.75 L 231.25 296.25 C 195.64 260.64 209.72 254.75 221.25 254.75 L 443.25 254.75 Z M 859.75 475.75 L 1032.75 302.75 L 1032.75 80.75 A 59.5 59.5 0 0 0 973.25 21.25 L 749.75 21.25 L 418.25 352.75 L 541.25 475.75 L 785.75 231.25 C 821.36 195.64 827.25 209.72 827.25 221.25 L 827.25 443.25 Z M 606.25 859.75 L 779.25 1032.75 L 1001.25 1032.75 A 59.5 59.5 0 0 0 1060.75 973.25 L 1060.75 749.75 L 729.25 418.25 L 606.25 541.25 L 850.75 785.75 C 886.36 821.36 872.28 827.25 860.75 827.25 L 638.75 827.25 Z M 222.25 606.25 L 49.25 779.25 L 49.25 1001.25 A 59.5 59.5 0 0 0 108.75 1060.75 L 332.25 1060.75 L 663.75 729.25 L 540.75 606.25 L 296.25 850.75 C 260.64 886.36 254.75 872.28 254.75 860.75 L 254.75 638.75 Z" fill="#D8DFE6"></path></g><rect x="997.7" y="55.7" width="28.6" height="28.6" fill="#81878D"></rect><rect x="965.2" y="88.2" width="28.6" height="28.6" fill="#81878D"></rect><rect x="997.7" y="88.2" width="28.6" height="28.6" fill="#81878D"></rect><rect x="932.8" y="120.7" width="28.6" height="28.6" fill="#81878D"></rect><rect x="965.2" y="120.7" width="28.6" height="28.6" fill="#81878D"></rect><rect x="997.7" y="120.7" width="28.6" height="28.6" fill="#81878D"></rect><rect x="900.3" y="153.1" width="28.6" height="28.6" fill="#81878D"></rect><rect x="932.8" y="153.1" width="28.6" height="28.6" fill="#81878D"></rect><rect x="965.2" y="153.1" width="28.6" height="28.6" fill="#81878D"></rect><rect x="997.7" y="153.1" width="28.6" height="28.6" fill="#81878D"></rect><rect x="867.8" y="185.6" width="28.6" height="28.6" fill="#81878D"></rect><rect x="900.3" y="185.6" width="28.6" height="28.6" fill="#81878D"></rect><rect x="932.8" y="185.6" width="28.6" height="28.6" fill="#81878D"></rect><rect x="965.2" y="185.6" width="28.6" height="28.6" fill="#81878D"></rect><rect x="997.7" y="185.6" width="28.6" height="28.6" fill="#81878D"></rect><rect x="835.3" y="218.1" width="28.6" height="28.6" fill="#81878D"></rect><rect x="867.8" y="218.1" width="28.6" height="28.6" fill="#81878D"></rect><rect x="900.3" y="218.1" width="28.6" height="28.6" fill="#81878D"></rect><rect x="932.8" y="218.1" width="28.6" height="28.6" fill="#81878D"></rect><rect x="965.2" y="218.1" width="28.6" height="28.6" fill="#81878D"></rect><rect x="997.7" y="218.1" width="28.6" height="28.6" fill="#81878D"></rect><rect x="835.3" y="250.6" width="28.6" height="28.6" fill="#81878D"></rect><rect x="867.8" y="250.6" width="28.6" height="28.6" fill="#81878D"></rect><rect x="900.3" y="250.6" width="28.6" height="28.6" fill="#81878D"></rect><rect x="932.8" y="250.6" width="28.6" height="28.6" fill="#81878D"></rect><rect x="965.2" y="250.6" width="28.6" height="28.6" fill="#81878D"></rect><rect x="997.7" y="250.6" width="28.6" height="28.6" fill="#81878D"></rect><rect x="835.3" y="283.1" width="28.6" height="28.6" fill="#81878D"></rect><rect x="867.8" y="283.1" width="28.6" height="28.6" fill="#81878D"></rect><rect x="900.3" y="283.1" width="28.6" height="28.6" fill="#81878D"></rect><rect x="932.8" y="283.1" width="28.6" height="28.6" fill="#81878D"></rect><rect x="965.2" y="283.1" width="28.6" height="28.6" fill="#81878D"></rect><rect x="835.3" y="315.6" width="28.6" height="28.6" fill="#81878D"></rect><rect x="867.8" y="315.6" width="28.6" height="28.6" fill="#81878D"></rect><rect x="900.3" y="315.6" width="28.6" height="28.6" fill="#81878D"></rect><rect x="932.8" y="315.6" width="28.6" height="28.6" fill="#81878D"></rect><rect x="835.3" y="348.0" width="28.6" height="28.6" fill="#81878D"></rect><rect x="867.8" y="348.0" width="28.6" height="28.6" fill="#81878D"></rect><rect x="900.3" y="348.0" width="28.6" height="28.6" fill="#81878D"></rect><rect x="835.3" y="380.5" width="28.6" height="28.6" fill="#81878D"></rect><rect x="867.8" y="380.5" width="28.6" height="28.6" fill="#81878D"></rect><rect x="835.3" y="413.0" width="28.6" height="28.6" fill="#81878D"></rect><rect x="705.4" y="445.5" width="28.6" height="28.6" fill="#81878D"></rect><rect x="737.9" y="445.5" width="28.6" height="28.6" fill="#81878D"></rect><rect x="672.9" y="478.0" width="28.6" height="28.6" fill="#81878D"></rect><rect x="705.4" y="478.0" width="28.6" height="28.6" fill="#81878D"></rect><rect x="737.9" y="478.0" width="28.6" height="28.6" fill="#81878D"></rect><rect x="770.3" y="478.0" width="28.6" height="28.6" fill="#81878D"></rect><rect x="640.4" y="510.5" width="28.6" height="28.6" fill="#81878D"></rect><rect x="672.9" y="510.5" width="28.6" height="28.6" fill="#81878D"></rect><rect x="705.4" y="510.5" width="28.6" height="28.6" fill="#81878D"></rect><rect x="737.9" y="510.5" width="28.6" height="28.6" fill="#81878D"></rect><rect x="640.4" y="542.9" width="28.6" height="28.6" fill="#81878D"></rect><rect x="672.9" y="542.9" width="28.6" height="28.6" fill="#81878D"></rect><rect x="705.4" y="542.9" width="28.6" height="28.6" fill="#81878D"></rect><rect x="672.9" y="575.4" width="28.6" height="28.6" fill="#81878D"></rect><rect x="510.5" y="640.4" width="28.6" height="28.6" fill="#81878D"></rect><rect x="542.9" y="640.4" width="28.6" height="28.6" fill="#81878D"></rect><rect x="478.0" y="672.9" width="28.6" height="28.6" fill="#81878D"></rect><rect x="510.5" y="672.9" width="28.6" height="28.6" fill="#81878D"></rect><rect x="542.9" y="672.9" width="28.6" height="28.6" fill="#81878D"></rect><rect x="575.4" y="672.9" width="28.6" height="28.6" fill="#81878D"></rect><rect x="445.5" y="705.4" width="28.6" height="28.6" fill="#81878D"></rect><rect x="478.0" y="705.4" width="28.6" height="28.6" fill="#81878D"></rect><rect x="510.5" y="705.4" width="28.6" height="28.6" fill="#81878D"></rect><rect x="542.9" y="705.4" width="28.6" height="28.6" fill="#81878D"></rect><rect x="413.0" y="737.9" width="28.6" height="28.6" fill="#81878D"></rect><rect x="445.5" y="737.9" width="28.6" height="28.6" fill="#81878D"></rect><rect x="478.0" y="737.9" width="28.6" height="28.6" fill="#81878D"></rect><rect x="510.5" y="737.9" width="28.6" height="28.6" fill="#81878D"></rect><rect x="380.5" y="770.3" width="28.6" height="28.6" fill="#81878D"></rect><rect x="413.0" y="770.3" width="28.6" height="28.6" fill="#81878D"></rect><rect x="445.5" y="770.3" width="28.6" height="28.6" fill="#81878D"></rect><rect x="478.0" y="770.3" width="28.6" height="28.6" fill="#81878D"></rect><rect x="348.0" y="802.8" width="28.6" height="28.6" fill="#81878D"></rect><rect x="380.5" y="802.8" width="28.6" height="28.6" fill="#81878D"></rect><rect x="413.0" y="802.8" width="28.6" height="28.6" fill="#81878D"></rect><rect x="445.5" y="802.8" width="28.6" height="28.6" fill="#81878D"></rect><rect x="218.1" y="835.3" width="28.6" height="28.6" fill="#81878D"></rect><rect x="315.6" y="835.3" width="28.6" height="28.6" fill="#81878D"></rect><rect x="348.0" y="835.3" width="28.6" height="28.6" fill="#81878D"></rect><rect x="380.5" y="835.3" width="28.6" height="28.6" fill="#81878D"></rect><rect x="413.0" y="835.3" width="28.6" height="28.6" fill="#81878D"></rect><rect x="185.6" y="867.8" width="28.6" height="28.6" fill="#81878D"></rect><rect x="218.1" y="867.8" width="28.6" height="28.6" fill="#81878D"></rect><rect x="250.6" y="867.8" width="28.6" height="28.6" fill="#81878D"></rect><rect x="283.1" y="867.8" width="28.6" height="28.6" fill="#81878D"></rect><rect x="315.6" y="867.8" width="28.6" height="28.6" fill="#81878D"></rect><rect x="348.0" y="867.8" width="28.6" height="28.6" fill="#81878D"></rect><rect x="380.5" y="867.8" width="28.6" height="28.6" fill="#81878D"></rect><rect x="153.1" y="900.3" width="28.6" height="28.6" fill="#81878D"></rect><rect x="185.6" y="900.3" width="28.6" height="28.6" fill="#81878D"></rect><rect x="218.1" y="900.3" width="28.6" height="28.6" fill="#81878D"></rect><rect x="250.6" y="900.3" width="28.6" height="28.6" fill="#81878D"></rect><rect x="283.1" y="900.3" width="28.6" height="28.6" fill="#81878D"></rect><rect x="315.6" y="900.3" width="28.6" height="28.6" fill="#81878D"></rect><rect x="348.0" y="900.3" width="28.6" height="28.6" fill="#81878D"></rect><rect x="120.7" y="932.8" width="28.6" height="28.6" fill="#81878D"></rect><rect x="153.1" y="932.8" width="28.6" height="28.6" fill="#81878D"></rect><rect x="185.6" y="932.8" width="28.6" height="28.6" fill="#81878D"></rect><rect x="218.1" y="932.8" width="28.6" height="28.6" fill="#81878D"></rect><rect x="250.6" y="932.8" width="28.6" height="28.6" fill="#81878D"></rect><rect x="283.1" y="932.8" width="28.6" height="28.6" fill="#81878D"></rect><rect x="315.6" y="932.8" width="28.6" height="28.6" fill="#81878D"></rect><rect x="88.2" y="965.2" width="28.6" height="28.6" fill="#81878D"></rect><rect x="120.7" y="965.2" width="28.6" height="28.6" fill="#81878D"></rect><rect x="153.1" y="965.2" width="28.6" height="28.6" fill="#81878D"></rect><rect x="185.6" y="965.2" width="28.6" height="28.6" fill="#81878D"></rect><rect x="218.1" y="965.2" width="28.6" height="28.6" fill="#81878D"></rect><rect x="250.6" y="965.2" width="28.6" height="28.6" fill="#81878D"></rect><rect x="283.1" y="965.2" width="28.6" height="28.6" fill="#81878D"></rect><rect x="55.7" y="997.7" width="28.6" height="28.6" fill="#81878D"></rect><rect x="88.2" y="997.7" width="28.6" height="28.6" fill="#81878D"></rect><rect x="120.7" y="997.7" width="28.6" height="28.6" fill="#81878D"></rect><rect x="153.1" y="997.7" width="28.6" height="28.6" fill="#81878D"></rect><rect x="185.6" y="997.7" width="28.6" height="28.6" fill="#81878D"></rect><rect x="218.1" y="997.7" width="28.6" height="28.6" fill="#81878D"></rect><rect x="250.6" y="997.7" width="28.6" height="28.6" fill="#81878D"></rect><rect x="55.7" y="1030.2" width="28.6" height="28.6" fill="#81878D"></rect><rect x="88.2" y="1030.2" width="28.6" height="28.6" fill="#81878D"></rect><rect x="120.7" y="1030.2" width="28.6" height="28.6" fill="#81878D"></rect><rect x="153.1" y="1030.2" width="28.6" height="28.6" fill="#81878D"></rect><rect x="185.6" y="1030.2" width="28.6" height="28.6" fill="#81878D"></rect><rect x="218.1" y="1030.2" width="28.6" height="28.6" fill="#81878D"></rect><rect x="739.8" y="544.9" width="57.2" height="57.2" fill="#9FA5AC"></rect><rect x="804.8" y="544.9" width="57.2" height="57.2" fill="#9FA5AC"></rect><rect x="739.8" y="609.9" width="57.2" height="57.2" fill="#9FA5AC"></rect><rect x="804.8" y="609.9" width="57.2" height="57.2" fill="#9FA5AC"></rect><rect x="869.7" y="609.9" width="57.2" height="57.2" fill="#9FA5AC"></rect><rect x="804.8" y="674.8" width="57.2" height="57.2" fill="#9FA5AC"></rect><rect x="544.9" y="739.8" width="57.2" height="57.2" fill="#9FA5AC"></rect><rect x="479.9" y="804.8" width="57.2" height="57.2" fill="#9FA5AC"></rect><rect x="609.9" y="804.8" width="57.2" height="57.2" fill="#9FA5AC"></rect><rect x="674.8" y="804.8" width="57.2" height="57.2" fill="#9FA5AC"></rect><rect x="415.0" y="869.7" width="57.2" height="57.2" fill="#9FA5AC"></rect><rect x="350.0" y="934.7" width="57.2" height="57.2" fill="#9FA5AC"></rect><rect x="285.0" y="999.7" width="57.2" height="57.2" fill="#9FA5AC"></rect><rect x="808.7" y="678.7" width="114.3" height="114.3" fill="#BEC5CC"></rect><rect x="938.6" y="678.7" width="114.3" height="114.3" fill="#BEC5CC"></rect><rect x="678.7" y="808.7" width="114.3" height="114.3" fill="#BEC5CC"></rect><rect x="808.7" y="808.7" width="114.3" height="114.3" fill="#BEC5CC"></rect><rect x="938.6" y="808.7" width="114.3" height="114.3" fill="#BEC5CC"></rect><rect x="808.7" y="938.6" width="114.3" height="114.3" fill="#BEC5CC"></rect><rect x="938.6" y="938.6" width="114.3" height="114.3" fill="#BEC5CC"></rect></g></svg>