<svg viewBox="-1 -1 102 102" width="512" height="512" xmlns="http://www.w3.org/2000/svg" xmlns:c2pa="http://c2pa.org/manifest"><metadata><c2pa:manifest>AAAWgmp1bWIAAAAeanVtZGMycGEAEQAQgAAAqgA4m3EDYzJwYQAAABZcanVtYgAAAEdqdW1kYzJtYQARABCAAACqADibcQN1cm46YzJwYTowYWIxYzZhNC1lYWM0LTQxNmEtODU2Ni0wMzZmZTcwNjAwMmYAAAADl2p1bWIAAAApanVtZGMyYXMAEQAQgAAAqgA4m3EDYzJwYS5hc3NlcnRpb25zAAAAALxqdW1iAAAARGp1bWRjYm9yABEAEIAAAKoAOJtxE2MycGEuaW5ncmVkaWVudC52MwAAAAAYYzJzaMuQkZ9Jt8dcbkR2MdDK3VYAAABwY2JvcqNpZGM6Zm9ybWF0bWltYWdlL3N2Zyt4bWxqaW5zdGFuY2VJRHgseG1wOmlpZDo3MmFkYzc0YS04NDVkLTRmMzctODdhNy02YjliMGE4NzNhNTNscmVsYXRpb25zaGlwaHBhcmVudE9mAAAB4mp1bWIAAABBanVtZGNib3IAEQAQgAAAqgA4m3ETYzJwYS5hY3Rpb25zLnYyAAAAABhjMnNodLkrhSydTcee16QZcw9XIgAAAZljYm9yomdhY3Rpb25zgqJmYWN0aW9ua2MycGEub3BlbmVkanBhcmFtZXRlcnOha2luZ3JlZGllbnRzgaJjdXJseC1zZWxmI2p1bWJmPWMycGEuYXNzZXJ0aW9ucy9jMnBhLmluZ3JlZGllbnQudjNkaGFzaFggAnC1Tycsz+ygn+DXC7HH4XqD1F7MC7T2m7yobJUroPmkZmFjdGlvbngdY29tLmFudGhyb3BpYy5jbGF1ZGUucHJvdmlkZWRqcGFyYW1ldGVyc6F4H2NvbS5hbnRocm9waWMub3JpZ2luLWNvbmZpZGVuY2VndW5rbm93bmtkZXNjcmlwdGlvbnhmQ2xhdWRlIHByb3ZpZGVkIHRoaXMgZmlsZSBhdCB0aGUgcmVxdWVzdCBvZiBhIHVzZXIgYW5kIG1heSBoYXZlIGNyZWF0ZWQgb3IgbW9kaWZpZWQgdGhlIGZpbGUgY29udGVudHMubXNvZnR3YXJlQWdlbnShZG5hbWVmQ2xhdWRlcmFsbEFjdGlvbnNJbmNsdWRlZPUAAADIanVtYgAAAEBqdW1kY2JvcgARABCAAACqADibcRNjMnBhLmhhc2guZGF0YQAAAAAYYzJzaBLT/Hgxlk+GI1fu/VaSgXYAAACAY2JvcqVjYWxnZnNoYTI1NmNwYWRNAAAAAAAAAAAAAAAAAGRoYXNoWCAINB5OFz5BHflXc9h92fBoyOOeiVZIh3fqbSlF2eR4WGRuYW1lbmp1bWJmIG1hbmlmZXN0amV4Y2x1c2lvbnOBomVzdGFydBiYZmxlbmd0aBkeBAAAAj5qdW1iAAAAJ2p1bWRjMmNsABEAEIAAAKoAOJtxA2MycGEuY2xhaW0udjIAAAACD2Nib3KlY2FsZ2ZzaGEyNTZpc2lnbmF0dXJleE1zZWxmI2p1bWJmPS9jMnBhL3VybjpjMnBhOjBhYjFjNmE0LWVhYzQtNDE2YS04NTY2LTAzNmZlNzA2MDAyZi9jMnBhLnNpZ25hdHVyZWppbnN0YW5jZUlEeCx4bXA6aWlkOjQwNDQyMTg4LTM1ZDAtNDA0Ni05NzY1LTM1MWYyNWI5YzNmNnJjcmVhdGVkX2Fzc2VydGlvbnODomN1cmx4LXNlbGYjanVtYmY9YzJwYS5hc3NlcnRpb25zL2MycGEuaW5ncmVkaWVudC52M2RoYXNoWCACcLVPJyzP7KCf4NcLscfheoPUXswLtPabvKhslSug+aJjdXJseCpzZWxmI2p1bWJmPWMycGEuYXNzZXJ0aW9ucy9jMnBhLmFjdGlvbnMudjJkaGFzaFggU5mo8B9YCO0J2lnnbkE6+t0+oRV9LPtrkBys6PG2Td6iY3VybHgpc2VsZiNqdW1iZj1jMnBhLmFzc2VydGlvbnMvYzJwYS5oYXNoLmRhdGFkaGFzaFggKT8zDrUJTZOrAE4eztFgL6e/rr5L3dttM4zjZHYelQt0Y2xhaW1fZ2VuZXJhdG9yX2luZm+jZG5hbWVvQW50aHJvcGljIEZpbGVzZ3ZlcnNpb25lMS4wLjBrc3BlY1ZlcnNpb25lMi40LjAAABA4anVtYgAAAChqdW1kYzJjcwARABCAAACqADibcQNjMnBhLnNpZ25hdHVyZQAAABAIY2JvctKEWQISogEmGCFZAgowggIGMIIBjaADAgECAhRA5aAK7sI50L64g/oGQgU9Z1UTADAKBggqhkjOPQQDAzBJMRcwFQYDVQQKEw5BbnRocm9waWMsIFBCQzEuMCwGA1UEAxMlQW50aHJvcGljIENvbnRlbnQgQ3JlZGVudGlhbHMgUm9vdCBDQTAeFw0yNjA4MDcxODQzNTZaFw0yODA4MDYxOTQzNTZaMEQxFzAVBgNVBAoTDkFudGhyb3BpYywgUEJDMSkwJwYDVQQDEyBBbnRocm9waWMgQ2xhdWRlIENvbnRlbnQgU2lnbmluZzBZMBMGByqGSM49AgEGCCqGSM49AwEHA0IABJh6CmvLUBgFFNU0vUKlOVtE6djd17L5SuwX0LemFisBM3dkd/3cyjxFA3Qo5S46fX0/ihY0VZ7mfb9KF703t5OjWDBWMA4GA1UdDwEB/wQEAwIHgDAVBgNVHSUEDjAMBgorBgEEAYPoXgIBMAwGA1UdEwEB/wQCMAAwHwYDVR0jBBgwFoAUzlHiBIFOZFsj+OPEz5o+nMHXXMIwCgYIKoZIzj0EAwMDZwAwZAIwMXMdFJ4BetLLVY7ORuE9noqbbAZOZn/aArXyTwFAZfKrPzxF2vPoJNf1+UCdg1XGAjBwX1zd9WGqYkqmL5SFqw1QySjr1zJfpJM9+1rdDwSPLMOPOjKuiXjoU/pUUeG9RwmhY3BhZFkNngAAAAAAAAAAAAAAAAAAAAAAAAAAAAAAAAAAAAAAAAAAAAAAAAAAAAAAAAAAAAAAAAAAAAAAAAAAAAAAAAAAAAAAAAAAAAAAAAAAAAAAAAAAAAAAAAAAAAAAAAAAAAAAAAAAAAAAAAAAAAAAAAAAAAAAAAAAAAAAAAAAAAAAAAAAAAAAAAAAAAAAAAAAAAAAAAAAAAAAAAAAAAAAAAAAAAAAAAAAAAAAAAAAAAAAAAAAAAAAAAAAAAAAAAAAAAAAAAAAAAAAAAAAAAAAAAAAAAAAAAAAAAAAAAAAAAAAAAAAAAAAAAAAAAAAAAAAAAAAAAAAAAAAAAAAAAAAAAAAAAAAAAAAAAAAAAAAAAAAAAAAAAAAAAAAAAAAAAAAAAAAAAAAAAAAAAAAAAAAAAAAAAAAAAAAAAAAAAAAAAAAAAAAAAAAAAAAAAAAAAAAAAAAAAAAAAAAAAAAAAAAAAAAAAAAAAAAAAAAAAAAAAAAAAAAAAAAAAAAAAAAAAAAAAAAAAAAAAAAAAAAAAAAAAAAAAAAAAAAAAAAAAAAAAAAAAAAAAAAAAAAAAAAAAAAAAAAAAAAAAAAAAAAAAAAAAAAAAAAAAAAAAAAAAAAAAAAAAAAAAAAAAAAAAAAAAAAAAAAAAAAAAAAAAAAAAAAAAAAAAAAAAAAAAAAAAAAAAAAAAAAAAAAAAAAAAAAAAAAAAAAAAAAAAAAAAAAAAAAAAAAAAAAAAAAAAAAAAAAAAAAAAAAAAAAAAAAAAAAAAAAAAAAAAAAAAAAAAAAAAAAAAAAAAAAAAAAAAAAAAAAAAAAAAAAAAAAAAAAAAAAAAAAAAAAAAAAAAAAAAAAAAAAAAAAAAAAAAAAAAAAAAAAAAAAAAAAAAAAAAAAAAAAAAAAAAAAAAAAAAAAAAAAAAAAAAAAAAAAAAAAAAAAAAAAAAAAAAAAAAAAAAAAAAAAAAAAAAAAAAAAAAAAAAAAAAAAAAAAAAAAAAAAAAAAAAAAAAAAAAAAAAAAAAAAAAAAAAAAAAAAAAAAAAAAAAAAAAAAAAAAAAAAAAAAAAAAAAAAAAAAAAAAAAAAAAAAAAAAAAAAAAAAAAAAAAAAAAAAAAAAAAAAAAAAAAAAAAAAAAAAAAAAAAAAAAAAAAAAAAAAAAAAAAAAAAAAAAAAAAAAAAAAAAAAAAAAAAAAAAAAAAAAAAAAAAAAAAAAAAAAAAAAAAAAAAAAAAAAAAAAAAAAAAAAAAAAAAAAAAAAAAAAAAAAAAAAAAAAAAAAAAAAAAAAAAAAAAAAAAAAAAAAAAAAAAAAAAAAAAAAAAAAAAAAAAAAAAAAAAAAAAAAAAAAAAAAAAAAAAAAAAAAAAAAAAAAAAAAAAAAAAAAAAAAAAAAAAAAAAAAAAAAAAAAAAAAAAAAAAAAAAAAAAAAAAAAAAAAAAAAAAAAAAAAAAAAAAAAAAAAAAAAAAAAAAAAAAAAAAAAAAAAAAAAAAAAAAAAAAAAAAAAAAAAAAAAAAAAAAAAAAAAAAAAAAAAAAAAAAAAAAAAAAAAAAAAAAAAAAAAAAAAAAAAAAAAAAAAAAAAAAAAAAAAAAAAAAAAAAAAAAAAAAAAAAAAAAAAAAAAAAAAAAAAAAAAAAAAAAAAAAAAAAAAAAAAAAAAAAAAAAAAAAAAAAAAAAAAAAAAAAAAAAAAAAAAAAAAAAAAAAAAAAAAAAAAAAAAAAAAAAAAAAAAAAAAAAAAAAAAAAAAAAAAAAAAAAAAAAAAAAAAAAAAAAAAAAAAAAAAAAAAAAAAAAAAAAAAAAAAAAAAAAAAAAAAAAAAAAAAAAAAAAAAAAAAAAAAAAAAAAAAAAAAAAAAAAAAAAAAAAAAAAAAAAAAAAAAAAAAAAAAAAAAAAAAAAAAAAAAAAAAAAAAAAAAAAAAAAAAAAAAAAAAAAAAAAAAAAAAAAAAAAAAAAAAAAAAAAAAAAAAAAAAAAAAAAAAAAAAAAAAAAAAAAAAAAAAAAAAAAAAAAAAAAAAAAAAAAAAAAAAAAAAAAAAAAAAAAAAAAAAAAAAAAAAAAAAAAAAAAAAAAAAAAAAAAAAAAAAAAAAAAAAAAAAAAAAAAAAAAAAAAAAAAAAAAAAAAAAAAAAAAAAAAAAAAAAAAAAAAAAAAAAAAAAAAAAAAAAAAAAAAAAAAAAAAAAAAAAAAAAAAAAAAAAAAAAAAAAAAAAAAAAAAAAAAAAAAAAAAAAAAAAAAAAAAAAAAAAAAAAAAAAAAAAAAAAAAAAAAAAAAAAAAAAAAAAAAAAAAAAAAAAAAAAAAAAAAAAAAAAAAAAAAAAAAAAAAAAAAAAAAAAAAAAAAAAAAAAAAAAAAAAAAAAAAAAAAAAAAAAAAAAAAAAAAAAAAAAAAAAAAAAAAAAAAAAAAAAAAAAAAAAAAAAAAAAAAAAAAAAAAAAAAAAAAAAAAAAAAAAAAAAAAAAAAAAAAAAAAAAAAAAAAAAAAAAAAAAAAAAAAAAAAAAAAAAAAAAAAAAAAAAAAAAAAAAAAAAAAAAAAAAAAAAAAAAAAAAAAAAAAAAAAAAAAAAAAAAAAAAAAAAAAAAAAAAAAAAAAAAAAAAAAAAAAAAAAAAAAAAAAAAAAAAAAAAAAAAAAAAAAAAAAAAAAAAAAAAAAAAAAAAAAAAAAAAAAAAAAAAAAAAAAAAAAAAAAAAAAAAAAAAAAAAAAAAAAAAAAAAAAAAAAAAAAAAAAAAAAAAAAAAAAAAAAAAAAAAAAAAAAAAAAAAAAAAAAAAAAAAAAAAAAAAAAAAAAAAAAAAAAAAAAAAAAAAAAAAAAAAAAAAAAAAAAAAAAAAAAAAAAAAAAAAAAAAAAAAAAAAAAAAAAAAAAAAAAAAAAAAAAAAAAAAAAAAAAAAAAAAAAAAAAAAAAAAAAAAAAAAAAAAAAAAAAAAAAAAAAAAAAAAAAAAAAAAAAAAAAAAAAAAAAAAAAAAAAAAAAAAAAAAAAAAAAAAAAAAAAAAAAAAAAAAAAAAAAAAAAAAAAAAAAAAAAAAAAAAAAAAAAAAAAAAAAAAAAAAAAAAAAAAAAAAAAAAAAAAAAAAAAAAAAAAAAAAAAAAAAAAAAAAAAAAAAAAAAAAAAAAAAAAAAAAAAAAAAAAAAAAAAAAAAAAAAAAAAAAAAAAAAAAAAAAAAAAAAAAAAAAAAAAAAAAAAAAAAAAAAAAAAAAAAAAAAAAAAAAAAAAAAAAAAAAAAAAAAAAAAAAAAAAAAAAAAAAAAAAAAAAAAAAAAAAAAAAAAAAAAAAAAAAAAAAAAAAAAAAAAAAAAAAAAAAAAAAAAAAAAAAAAAAAAAAAAAAAAAAAAAAAAAAAAAAAAAAAAAAAAAAAAAAAAAAAAAAAAAAAAAAAAAAAAAAAAAAAAAAAAAAAAAAAAAAAAAAAAAAAAAAAAAAAAAAAAAAAAAAAAAAAAAAAAAAAAAAAAAAAAAAAAAAAAAAAAAAAAAAAAAAAAAAAAAAAAAAAAAAAAAAAAAAAAAAAAAAAAAAAAAAAAAAAAAAAAAAAAAAAAAAAAAAAAAAAAAAAAAAAAAAAAAAAAAAAAAAAAAAAAAAAAAAAAAAAAAAAAAAAAAAAAAAAAAAAAAAAAAAAAAAAAAAAAAAAAAAAAAAAAAAAAAAAAAAAAAAAAAAAAAAAAAAAAAAAAAAAAAAAAAAAAAAAAAAAAAAAAAAAAAAAAAAAAAAAAAAAAAAAAAAAAAAAAAAAAAAAAAAAAAAAAAAAAAAAAAAAAAAAAAAAAAAAAAAAAAAAAAAAAAAAAAAAAAAAAAAAAAAAAAAAAAAAAAAAAAAAAAAAAAAAAAAAAAAAAAAAAAAAAAAAAAAAAAAAAAAAAAAAAAAAAAAAAAAAAAAAAAAAAAAAAAAAAAAAAAAAAAAAAAAAAAAAAAAAAAAAAAAAAAAAAAAAAAAAAAAAAAAAAAAAAAAAAAAAAAAAAAAAAAAAAAAAAAAAAAAAAAAAAAAAAAAAAAAAAAAAAAAAAAAAAAAAAAAAAAAAAAAAAAAAAAAAAAAAAAAAAAAAAAAAAAAAAAAAAAAAAAAAAAAAAAAAAAAAAAAAAAAAAAAAAAAAAAAAAAAAAAAAAAAAAAAAAAAAAAAAAAAAAAAAAAAAAAAAAAAAAAAAAAAAAAAAAAAAAAAAAAAAAAAAAAAAAAAAAAAAAAAAAAAAAAAAAAAAAAAAAAAAAAAAAAAAAAAAAAAAAAAAAAAAAAAAAAAAAAAAAAAAAAAAAAAAAAAAAAAAAAAAAAAAAAAAAAAAAAAAAAAAAAAAAAAAAAAAAAAAAAAAAAAAAAAAAAAAAAAAAAAAAAAAAAAAAAAAAAAAAAAAAAAAAAAAAAAAAAAAAAAAAAAAAAAAAAAAAAAAAAAAAAAAAAAAAAAAAAAAAAAAAAAAAAAAAAAAAAAAAAAAAAAAAAAAAAAAAAAAAAAAAAAAAAAAAAAAAAAAAAAAAAAAAAAAAAAAAAAAAAAAAAAAAAAAAAAAAAAAAAAAAAAAAAAAAAAAAAAAAAAAAAAAAAAAAAAAAAAAAAAAAAAAAAAAAAAAAAAAAAAAAAAAAAAAAAAAAAAAAAAAAAAAAAAAAAAAAAAAAAAAAAAAAAAAAAAAAAAAAAAAAAAAAAAAAAAAAAAAAAAAAAAAAAAAAAAAAAAAAAAAAAAAAAAAAAAAAAAAAAAAAAAAPZYQKl/srLCsXXMUwLyGHJol0JWPx7fngV+kSNgfI4V25RTcV3mMO3W1ucHbupVTBGP9oySlzCFcqZte0uicnLTZ4Q=</c2pa:manifest></metadata><path d="M 6 0 L 100 0 L 100 84 L 84 100 L 0 100 L 0 6 A 6 6 0 0 1 6 0 Z" fill="#0B0B0B"></path><defs><clipPath id="t51"><path d="M -300 -300 L 1382 -300 L -300 1382 Z"></path></clipPath><clipPath id="b52"><path d="M 1382 -300 L 1382 1382 L -300 1382 Z"></path></clipPath></defs><g transform="translate(15.650625 15.650625) scale(0.0635)"><g clip-path="url(#t51)"><path d="M 475.75 222.25 L 302.75 49.25 L 80.75 49.25 A 59.5 59.5 0 0 0 21.25 108.75 L 21.25 332.25 L 352.75 663.75 L 475.75 540.75 L 231.25 296.25 C 195.64 260.64 209.72 254.75 221.25 254.75 L 443.25 254.75 Z M 859.75 475.75 L 1032.75 302.75 L 1032.75 80.75 A 59.5 59.5 0 0 0 973.25 21.25 L 749.75 21.25 L 418.25 352.75 L 541.25 475.75 L 785.75 231.25 C 821.36 195.64 827.25 209.72 827.25 221.25 L 827.25 443.25 Z M 606.25 859.75 L 779.25 1032.75 L 1001.25 1032.75 A 59.5 59.5 0 0 0 1060.75 973.25 L 1060.75 749.75 L 729.25 418.25 L 606.25 541.25 L 850.75 785.75 C 886.36 821.36 872.28 827.25 860.75 827.25 L 638.75 827.25 Z M 222.25 606.25 L 49.25 779.25 L 49.25 1001.25 A 59.5 59.5 0 0 0 108.75 1060.75 L 332.25 1060.75 L 663.75 729.25 L 540.75 606.25 L 296.25 850.75 C 260.64 886.36 254.75 872.28 254.75 860.75 L 254.75 638.75 Z" fill="#05CBC6"></path></g><g clip-path="url(#b52)"><defs><clipPath id="mm50"><path d="M 475.75 222.25 L 302.75 49.25 L 80.75 49.25 A 59.5 59.5 0 0 0 21.25 108.75 L 21.25 332.25 L 352.75 663.75 L 475.75 540.75 L 231.25 296.25 C 195.64 260.64 209.72 254.75 221.25 254.75 L 443.25 254.75 Z M 859.75 475.75 L 1032.75 302.75 L 1032.75 80.75 A 59.5 59.5 0 0 0 973.25 21.25 L 749.75 21.25 L 418.25 352.75 L 541.25 475.75 L 785.75 231.25 C 821.36 195.64 827.25 209.72 827.25 221.25 L 827.25 443.25 Z M 606.25 859.75 L 779.25 1032.75 L 1001.25 1032.75 A 59.5 59.5 0 0 0 1060.75 973.25 L 1060.75 749.75 L 729.25 418.25 L 606.25 541.25 L 850.75 785.75 C 886.36 821.36 872.28 827.25 860.75 827.25 L 638.75 827.25 Z M 222.25 606.25 L 49.25 779.25 L 49.25 1001.25 A 59.5 59.5 0 0 0 108.75 1060.75 L 332.25 1060.75 L 663.75 729.25 L 540.75 606.25 L 296.25 850.75 C 260.64 886.36 254.75 872.28 254.75 860.75 L 254.75 638.75 Z"></path></clipPath></defs><path d="M 475.75 222.25 L 302.75 49.25 L 80.75 49.25 A 59.5 59.5 0 0 0 21.25 108.75 L 21.25 332.25 L 352.75 663.75 L 475.75 540.75 L 231.25 296.25 C 195.64 260.64 209.72 254.75 221.25 254.75 L 443.25 254.75 Z M 859.75 475.75 L 1032.75 302.75 L 1032.75 80.75 A 59.5 59.5 0 0 0 973.25 21.25 L 749.75 21.25 L 418.25 352.75 L 541.25 475.75 L 785.75 231.25 C 821.36 195.64 827.25 209.72 827.25 221.25 L 827.25 443.25 Z M 606.25 859.75 L 779.25 1032.75 L 1001.25 1032.75 A 59.5 59.5 0 0 0 1060.75 973.25 L 1060.75 749.75 L 729.25 418.25 L 606.25 541.25 L 850.75 785.75 C 886.36 821.36 872.28 827.25 860.75 827.25 L 638.75 827.25 Z M 222.25 606.25 L 49.25 779.25 L 49.25 1001.25 A 59.5 59.5 0 0 0 108.75 1060.75 L 332.25 1060.75 L 663.75 729.25 L 540.75 606.25 L 296.25 850.75 C 260.64 886.36 254.75 872.28 254.75 860.75 L 254.75 638.75 Z" fill="#05CBC6" fill-opacity="0.14"></path><g clip-path="url(#mm50)"><rect x="21.0" y="733.9" width="56.0" height="327.1" fill="#05CBC6"></rect><rect x="39.0" y="763.9" width="20.0" height="26.0" fill="#0B0B0B"></rect><rect x="39.0" y="827.9" width="20.0" height="26.0" fill="#0B0B0B"></rect><rect x="39.0" y="891.9" width="20.0" height="26.0" fill="#0B0B0B"></rect><rect x="39.0" y="955.9" width="20.0" height="26.0" fill="#0B0B0B"></rect><rect x="39.0" y="1019.9" width="20.0" height="26.0" fill="#0B0B0B"></rect><rect x="91.0" y="502.7" width="56.0" height="558.3" fill="#05CBC6"></rect><rect x="109.0" y="532.7" width="20.0" height="26.0" fill="#0B0B0B"></rect><rect x="109.0" y="596.7" width="20.0" height="26.0" fill="#0B0B0B"></rect><rect x="109.0" y="660.7" width="20.0" height="26.0" fill="#0B0B0B"></rect><rect x="109.0" y="724.7" width="20.0" height="26.0" fill="#0B0B0B"></rect><rect x="109.0" y="788.7" width="20.0" height="26.0" fill="#0B0B0B"></rect><rect x="109.0" y="852.7" width="20.0" height="26.0" fill="#0B0B0B"></rect><rect x="109.0" y="916.7" width="20.0" height="26.0" fill="#0B0B0B"></rect><rect x="109.0" y="980.7" width="20.0" height="26.0" fill="#0B0B0B"></rect><rect x="161.0" y="768.3" width="56.0" height="292.7" fill="#05CBC6"></rect><rect x="179.0" y="798.3" width="20.0" height="26.0" fill="#0B0B0B"></rect><rect x="179.0" y="862.3" width="20.0" height="26.0" fill="#0B0B0B"></rect><rect x="179.0" y="926.3" width="20.0" height="26.0" fill="#0B0B0B"></rect><rect x="179.0" y="990.3" width="20.0" height="26.0" fill="#0B0B0B"></rect><rect x="231.0" y="534.1" width="56.0" height="526.9" fill="#05CBC6"></rect><rect x="249.0" y="564.1" width="20.0" height="26.0" fill="#0B0B0B"></rect><rect x="249.0" y="628.1" width="20.0" height="26.0" fill="#0B0B0B"></rect><rect x="249.0" y="692.1" width="20.0" height="26.0" fill="#0B0B0B"></rect><rect x="249.0" y="756.1" width="20.0" height="26.0" fill="#0B0B0B"></rect><rect x="249.0" y="820.1" width="20.0" height="26.0" fill="#0B0B0B"></rect><rect x="249.0" y="884.1" width="20.0" height="26.0" fill="#0B0B0B"></rect><rect x="249.0" y="948.1" width="20.0" height="26.0" fill="#0B0B0B"></rect><rect x="249.0" y="1012.1" width="20.0" height="26.0" fill="#0B0B0B"></rect><rect x="301.0" y="585.3" width="56.0" height="475.7" fill="#05CBC6"></rect><rect x="319.0" y="615.3" width="20.0" height="26.0" fill="#0B0B0B"></rect><rect x="319.0" y="679.3" width="20.0" height="26.0" fill="#0B0B0B"></rect><rect x="319.0" y="743.3" width="20.0" height="26.0" fill="#0B0B0B"></rect><rect x="319.0" y="807.3" width="20.0" height="26.0" fill="#0B0B0B"></rect><rect x="319.0" y="871.3" width="20.0" height="26.0" fill="#0B0B0B"></rect><rect x="319.0" y="935.3" width="20.0" height="26.0" fill="#0B0B0B"></rect><rect x="319.0" y="999.3" width="20.0" height="26.0" fill="#0B0B0B"></rect><rect x="371.0" y="317.7" width="56.0" height="743.3" fill="#05CBC6"></rect><rect x="389.0" y="347.7" width="20.0" height="26.0" fill="#0B0B0B"></rect><rect x="389.0" y="411.7" width="20.0" height="26.0" fill="#0B0B0B"></rect><rect x="389.0" y="475.7" width="20.0" height="26.0" fill="#0B0B0B"></rect><rect x="389.0" y="539.7" width="20.0" height="26.0" fill="#0B0B0B"></rect><rect x="389.0" y="603.7" width="20.0" height="26.0" fill="#0B0B0B"></rect><rect x="389.0" y="667.7" width="20.0" height="26.0" fill="#0B0B0B"></rect><rect x="389.0" y="731.7" width="20.0" height="26.0" fill="#0B0B0B"></rect><rect x="389.0" y="795.7" width="20.0" height="26.0" fill="#0B0B0B"></rect><rect x="389.0" y="859.7" width="20.0" height="26.0" fill="#0B0B0B"></rect><rect x="389.0" y="923.7" width="20.0" height="26.0" fill="#0B0B0B"></rect><rect x="389.0" y="987.7" width="20.0" height="26.0" fill="#0B0B0B"></rect><rect x="441.0" y="108.8" width="56.0" height="952.2" fill="#05CBC6"></rect><rect x="459.0" y="138.8" width="20.0" height="26.0" fill="#0B0B0B"></rect><rect x="459.0" y="202.8" width="20.0" height="26.0" fill="#0B0B0B"></rect><rect x="459.0" y="266.8" width="20.0" height="26.0" fill="#0B0B0B"></rect><rect x="459.0" y="330.8" width="20.0" height="26.0" fill="#0B0B0B"></rect><rect x="459.0" y="394.8" width="20.0" height="26.0" fill="#0B0B0B"></rect><rect x="459.0" y="458.8" width="20.0" height="26.0" fill="#0B0B0B"></rect><rect x="459.0" y="522.8" width="20.0" height="26.0" fill="#0B0B0B"></rect><rect x="459.0" y="586.8" width="20.0" height="26.0" fill="#0B0B0B"></rect><rect x="459.0" y="650.8" width="20.0" height="26.0" fill="#0B0B0B"></rect><rect x="459.0" y="714.8" width="20.0" height="26.0" fill="#0B0B0B"></rect><rect x="459.0" y="778.8" width="20.0" height="26.0" fill="#0B0B0B"></rect><rect x="459.0" y="842.8" width="20.0" height="26.0" fill="#0B0B0B"></rect><rect x="459.0" y="906.8" width="20.0" height="26.0" fill="#0B0B0B"></rect><rect x="459.0" y="970.8" width="20.0" height="26.0" fill="#0B0B0B"></rect><rect x="511.0" y="807.6" width="56.0" height="253.4" fill="#05CBC6"></rect><rect x="529.0" y="837.6" width="20.0" height="26.0" fill="#0B0B0B"></rect><rect x="529.0" y="901.6" width="20.0" height="26.0" fill="#0B0B0B"></rect><rect x="529.0" y="965.6" width="20.0" height="26.0" fill="#0B0B0B"></rect><rect x="529.0" y="1029.6" width="20.0" height="26.0" fill="#0B0B0B"></rect><rect x="581.0" y="269.9" width="56.0" height="791.1" fill="#05CBC6"></rect><rect x="599.0" y="299.9" width="20.0" height="26.0" fill="#0B0B0B"></rect><rect x="599.0" y="363.9" width="20.0" height="26.0" fill="#0B0B0B"></rect><rect x="599.0" y="427.9" width="20.0" height="26.0" fill="#0B0B0B"></rect><rect x="599.0" y="491.9" width="20.0" height="26.0" fill="#0B0B0B"></rect><rect x="599.0" y="555.9" width="20.0" height="26.0" fill="#0B0B0B"></rect><rect x="599.0" y="619.9" width="20.0" height="26.0" fill="#0B0B0B"></rect><rect x="599.0" y="683.9" width="20.0" height="26.0" fill="#0B0B0B"></rect><rect x="599.0" y="747.9" width="20.0" height="26.0" fill="#0B0B0B"></rect><rect x="599.0" y="811.9" width="20.0" height="26.0" fill="#0B0B0B"></rect><rect x="599.0" y="875.9" width="20.0" height="26.0" fill="#0B0B0B"></rect><rect x="599.0" y="939.9" width="20.0" height="26.0" fill="#0B0B0B"></rect><rect x="599.0" y="1003.9" width="20.0" height="26.0" fill="#0B0B0B"></rect><rect x="651.0" y="197.8" width="56.0" height="863.2" fill="#05CBC6"></rect><rect x="669.0" y="227.8" width="20.0" height="26.0" fill="#0B0B0B"></rect><rect x="669.0" y="291.8" width="20.0" height="26.0" fill="#0B0B0B"></rect><rect x="669.0" y="355.8" width="20.0" height="26.0" fill="#0B0B0B"></rect><rect x="669.0" y="419.8" width="20.0" height="26.0" fill="#0B0B0B"></rect><rect x="669.0" y="483.8" width="20.0" height="26.0" fill="#0B0B0B"></rect><rect x="669.0" y="547.8" width="20.0" height="26.0" fill="#0B0B0B"></rect><rect x="669.0" y="611.8" width="20.0" height="26.0" fill="#0B0B0B"></rect><rect x="669.0" y="675.8" width="20.0" height="26.0" fill="#0B0B0B"></rect><rect x="669.0" y="739.8" width="20.0" height="26.0" fill="#0B0B0B"></rect><rect x="669.0" y="803.8" width="20.0" height="26.0" fill="#0B0B0B"></rect><rect x="669.0" y="867.8" width="20.0" height="26.0" fill="#0B0B0B"></rect><rect x="669.0" y="931.8" width="20.0" height="26.0" fill="#0B0B0B"></rect><rect x="669.0" y="995.8" width="20.0" height="26.0" fill="#0B0B0B"></rect><rect x="721.0" y="574.6" width="56.0" height="486.4" fill="#05CBC6"></rect><rect x="739.0" y="604.6" width="20.0" height="26.0" fill="#0B0B0B"></rect><rect x="739.0" y="668.6" width="20.0" height="26.0" fill="#0B0B0B"></rect><rect x="739.0" y="732.6" width="20.0" height="26.0" fill="#0B0B0B"></rect><rect x="739.0" y="796.6" width="20.0" height="26.0" fill="#0B0B0B"></rect><rect x="739.0" y="860.6" width="20.0" height="26.0" fill="#0B0B0B"></rect><rect x="739.0" y="924.6" width="20.0" height="26.0" fill="#0B0B0B"></rect><rect x="739.0" y="988.6" width="20.0" height="26.0" fill="#0B0B0B"></rect><rect x="791.0" y="141.1" width="56.0" height="919.9" fill="#05CBC6"></rect><rect x="809.0" y="171.1" width="20.0" height="26.0" fill="#0B0B0B"></rect><rect x="809.0" y="235.1" width="20.0" height="26.0" fill="#0B0B0B"></rect><rect x="809.0" y="299.1" width="20.0" height="26.0" fill="#0B0B0B"></rect><rect x="809.0" y="363.1" width="20.0" height="26.0" fill="#0B0B0B"></rect><rect x="809.0" y="427.1" width="20.0" height="26.0" fill="#0B0B0B"></rect><rect x="809.0" y="491.1" width="20.0" height="26.0" fill="#0B0B0B"></rect><rect x="809.0" y="555.1" width="20.0" height="26.0" fill="#0B0B0B"></rect><rect x="809.0" y="619.1" width="20.0" height="26.0" fill="#0B0B0B"></rect><rect x="809.0" y="683.1" width="20.0" height="26.0" fill="#0B0B0B"></rect><rect x="809.0" y="747.1" width="20.0" height="26.0" fill="#0B0B0B"></rect><rect x="809.0" y="811.1" width="20.0" height="26.0" fill="#0B0B0B"></rect><rect x="809.0" y="875.1" width="20.0" height="26.0" fill="#0B0B0B"></rect><rect x="809.0" y="939.1" width="20.0" height="26.0" fill="#0B0B0B"></rect><rect x="809.0" y="1003.1" width="20.0" height="26.0" fill="#0B0B0B"></rect><rect x="861.0" y="338.9" width="56.0" height="722.1" fill="#05CBC6"></rect><rect x="879.0" y="368.9" width="20.0" height="26.0" fill="#0B0B0B"></rect><rect x="879.0" y="432.9" width="20.0" height="26.0" fill="#0B0B0B"></rect><rect x="879.0" y="496.9" width="20.0" height="26.0" fill="#0B0B0B"></rect><rect x="879.0" y="560.9" width="20.0" height="26.0" fill="#0B0B0B"></rect><rect x="879.0" y="624.9" width="20.0" height="26.0" fill="#0B0B0B"></rect><rect x="879.0" y="688.9" width="20.0" height="26.0" fill="#0B0B0B"></rect><rect x="879.0" y="752.9" width="20.0" height="26.0" fill="#0B0B0B"></rect><rect x="879.0" y="816.9" width="20.0" height="26.0" fill="#0B0B0B"></rect><rect x="879.0" y="880.9" width="20.0" height="26.0" fill="#0B0B0B"></rect><rect x="879.0" y="944.9" width="20.0" height="26.0" fill="#0B0B0B"></rect><rect x="879.0" y="1008.9" width="20.0" height="26.0" fill="#0B0B0B"></rect><rect x="931.0" y="661.4" width="56.0" height="399.6" fill="#05CBC6"></rect><rect x="949.0" y="691.4" width="20.0" height="26.0" fill="#0B0B0B"></rect><rect x="949.0" y="755.4" width="20.0" height="26.0" fill="#0B0B0B"></rect><rect x="949.0" y="819.4" width="20.0" height="26.0" fill="#0B0B0B"></rect><rect x="949.0" y="883.4" width="20.0" height="26.0" fill="#0B0B0B"></rect><rect x="949.0" y="947.4" width="20.0" height="26.0" fill="#0B0B0B"></rect><rect x="949.0" y="1011.4" width="20.0" height="26.0" fill="#0B0B0B"></rect><rect x="1001.0" y="157.3" width="56.0" height="903.7" fill="#05CBC6"></rect><rect x="1019.0" y="187.3" width="20.0" height="26.0" fill="#0B0B0B"></rect><rect x="1019.0" y="251.3" width="20.0" height="26.0" fill="#0B0B0B"></rect><rect x="1019.0" y="315.3" width="20.0" height="26.0" fill="#0B0B0B"></rect><rect x="1019.0" y="379.3" width="20.0" height="26.0" fill="#0B0B0B"></rect><rect x="1019.0" y="443.3" width="20.0" height="26.0" fill="#0B0B0B"></rect><rect x="1019.0" y="507.3" width="20.0" height="26.0" fill="#0B0B0B"></rect><rect x="1019.0" y="571.3" width="20.0" height="26.0" fill="#0B0B0B"></rect><rect x="1019.0" y="635.3" width="20.0" height="26.0" fill="#0B0B0B"></rect><rect x="1019.0" y="699.3" width="20.0" height="26.0" fill="#0B0B0B"></rect><rect x="1019.0" y="763.3" width="20.0" height="26.0" fill="#0B0B0B"></rect><rect x="1019.0" y="827.3" width="20.0" height="26.0" fill="#0B0B0B"></rect><rect x="1019.0" y="891.3" width="20.0" height="26.0" fill="#0B0B0B"></rect><rect x="1019.0" y="955.3" width="20.0" height="26.0" fill="#0B0B0B"></rect><rect x="1019.0" y="1019.3" width="20.0" height="26.0" fill="#0B0B0B"></rect></g></g></g></svg>