<svg xmlns="http://www.w3.org/2000/svg" viewBox="-1 -1 102 102" width="512" height="512" xmlns:c2pa="http://c2pa.org/manifest"><metadata><c2pa:manifest>AAAWgmp1bWIAAAAeanVtZGMycGEAEQAQgAAAqgA4m3EDYzJwYQAAABZcanVtYgAAAEdqdW1kYzJtYQARABCAAACqADibcQN1cm46YzJwYToyYjk5ZmExMi00Mzc4LTRmZGUtOGY1YS04N2I0MWIzZTFkYTIAAAADl2p1bWIAAAApanVtZGMyYXMAEQAQgAAAqgA4m3EDYzJwYS5hc3NlcnRpb25zAAAAALxqdW1iAAAARGp1bWRjYm9yABEAEIAAAKoAOJtxE2MycGEuaW5ncmVkaWVudC52MwAAAAAYYzJzaJoW7hq/Z7ZhQd+mPSjCCVkAAABwY2JvcqNpZGM6Zm9ybWF0bWltYWdlL3N2Zyt4bWxqaW5zdGFuY2VJRHgseG1wOmlpZDphYTFlYTIxMC01ZWY5LTRlMDQtYjVhZS04YzczMDQ2ZjFlZTJscmVsYXRpb25zaGlwaHBhcmVudE9mAAAB4mp1bWIAAABBanVtZGNib3IAEQAQgAAAqgA4m3ETYzJwYS5hY3Rpb25zLnYyAAAAABhjMnNo+zLnFNNYJbXQ9+zO7aUWGAAAAZljYm9yomdhY3Rpb25zgqJmYWN0aW9ua2MycGEub3BlbmVkanBhcmFtZXRlcnOha2luZ3JlZGllbnRzgaJjdXJseC1zZWxmI2p1bWJmPWMycGEuYXNzZXJ0aW9ucy9jMnBhLmluZ3JlZGllbnQudjNkaGFzaFggxYS6XESQoMEzbbB1mBFIUJF2glOhN1/Lf7YGDjz9oFqkZmFjdGlvbngdY29tLmFudGhyb3BpYy5jbGF1ZGUucHJvdmlkZWRqcGFyYW1ldGVyc6F4H2NvbS5hbnRocm9waWMub3JpZ2luLWNvbmZpZGVuY2VndW5rbm93bmtkZXNjcmlwdGlvbnhmQ2xhdWRlIHByb3ZpZGVkIHRoaXMgZmlsZSBhdCB0aGUgcmVxdWVzdCBvZiBhIHVzZXIgYW5kIG1heSBoYXZlIGNyZWF0ZWQgb3IgbW9kaWZpZWQgdGhlIGZpbGUgY29udGVudHMubXNvZnR3YXJlQWdlbnShZG5hbWVmQ2xhdWRlcmFsbEFjdGlvbnNJbmNsdWRlZPUAAADIanVtYgAAAEBqdW1kY2JvcgARABCAAACqADibcRNjMnBhLmhhc2guZGF0YQAAAAAYYzJzaMN7venHp0H1BdW9ZUbqpOAAAACAY2JvcqVjYWxnZnNoYTI1NmNwYWRNAAAAAAAAAAAAAAAAAGRoYXNoWCAs0zMsHxuaVO5gBCcfuKAamoU4pz+W0/0XYgiZ//wJ2mRuYW1lbmp1bWJmIG1hbmlmZXN0amV4Y2x1c2lvbnOBomVzdGFydBiYZmxlbmd0aBkeBAAAAj5qdW1iAAAAJ2p1bWRjMmNsABEAEIAAAKoAOJtxA2MycGEuY2xhaW0udjIAAAACD2Nib3KlY2FsZ2ZzaGEyNTZpc2lnbmF0dXJleE1zZWxmI2p1bWJmPS9jMnBhL3VybjpjMnBhOjJiOTlmYTEyLTQzNzgtNGZkZS04ZjVhLTg3YjQxYjNlMWRhMi9jMnBhLnNpZ25hdHVyZWppbnN0YW5jZUlEeCx4bXA6aWlkOjMzYmU5MTUxLTc3OGMtNDIzOS1iNWMyLWI0ODAyNWQxZTk4ZXJjcmVhdGVkX2Fzc2VydGlvbnODomN1cmx4LXNlbGYjanVtYmY9YzJwYS5hc3NlcnRpb25zL2MycGEuaW5ncmVkaWVudC52M2RoYXNoWCDFhLpcRJCgwTNtsHWYEUhQkXaCU6E3X8t/tgYOPP2gWqJjdXJseCpzZWxmI2p1bWJmPWMycGEuYXNzZXJ0aW9ucy9jMnBhLmFjdGlvbnMudjJkaGFzaFggrDl+EIvGmPkP4lyjs/V8rBtMGBuyxbP0ZLRN/a3caM2iY3VybHgpc2VsZiNqdW1iZj1jMnBhLmFzc2VydGlvbnMvYzJwYS5oYXNoLmRhdGFkaGFzaFgg2silE3oNQi/NJGtc0fb0qADa+Qr2pDnSeX6NVK++qvp0Y2xhaW1fZ2VuZXJhdG9yX2luZm+jZG5hbWVvQW50aHJvcGljIEZpbGVzZ3ZlcnNpb25lMS4wLjBrc3BlY1ZlcnNpb25lMi40LjAAABA4anVtYgAAAChqdW1kYzJjcwARABCAAACqADibcQNjMnBhLnNpZ25hdHVyZQAAABAIY2JvctKEWQISogEmGCFZAgowggIGMIIBjaADAgECAhRA5aAK7sI50L64g/oGQgU9Z1UTADAKBggqhkjOPQQDAzBJMRcwFQYDVQQKEw5BbnRocm9waWMsIFBCQzEuMCwGA1UEAxMlQW50aHJvcGljIENvbnRlbnQgQ3JlZGVudGlhbHMgUm9vdCBDQTAeFw0yNjA4MDcxODQzNTZaFw0yODA4MDYxOTQzNTZaMEQxFzAVBgNVBAoTDkFudGhyb3BpYywgUEJDMSkwJwYDVQQDEyBBbnRocm9waWMgQ2xhdWRlIENvbnRlbnQgU2lnbmluZzBZMBMGByqGSM49AgEGCCqGSM49AwEHA0IABJh6CmvLUBgFFNU0vUKlOVtE6djd17L5SuwX0LemFisBM3dkd/3cyjxFA3Qo5S46fX0/ihY0VZ7mfb9KF703t5OjWDBWMA4GA1UdDwEB/wQEAwIHgDAVBgNVHSUEDjAMBgorBgEEAYPoXgIBMAwGA1UdEwEB/wQCMAAwHwYDVR0jBBgwFoAUzlHiBIFOZFsj+OPEz5o+nMHXXMIwCgYIKoZIzj0EAwMDZwAwZAIwMXMdFJ4BetLLVY7ORuE9noqbbAZOZn/aArXyTwFAZfKrPzxF2vPoJNf1+UCdg1XGAjBwX1zd9WGqYkqmL5SFqw1QySjr1zJfpJM9+1rdDwSPLMOPOjKuiXjoU/pUUeG9RwmhY3BhZFkNngAAAAAAAAAAAAAAAAAAAAAAAAAAAAAAAAAAAAAAAAAAAAAAAAAAAAAAAAAAAAAAAAAAAAAAAAAAAAAAAAAAAAAAAAAAAAAAAAAAAAAAAAAAAAAAAAAAAAAAAAAAAAAAAAAAAAAAAAAAAAAAAAAAAAAAAAAAAAAAAAAAAAAAAAAAAAAAAAAAAAAAAAAAAAAAAAAAAAAAAAAAAAAAAAAAAAAAAAAAAAAAAAAAAAAAAAAAAAAAAAAAAAAAAAAAAAAAAAAAAAAAAAAAAAAAAAAAAAAAAAAAAAAAAAAAAAAAAAAAAAAAAAAAAAAAAAAAAAAAAAAAAAAAAAAAAAAAAAAAAAAAAAAAAAAAAAAAAAAAAAAAAAAAAAAAAAAAAAAAAAAAAAAAAAAAAAAAAAAAAAAAAAAAAAAAAAAAAAAAAAAAAAAAAAAAAAAAAAAAAAAAAAAAAAAAAAAAAAAAAAAAAAAAAAAAAAAAAAAAAAAAAAAAAAAAAAAAAAAAAAAAAAAAAAAAAAAAAAAAAAAAAAAAAAAAAAAAAAAAAAAAAAAAAAAAAAAAAAAAAAAAAAAAAAAAAAAAAAAAAAAAAAAAAAAAAAAAAAAAAAAAAAAAAAAAAAAAAAAAAAAAAAAAAAAAAAAAAAAAAAAAAAAAAAAAAAAAAAAAAAAAAAAAAAAAAAAAAAAAAAAAAAAAAAAAAAAAAAAAAAAAAAAAAAAAAAAAAAAAAAAAAAAAAAAAAAAAAAAAAAAAAAAAAAAAAAAAAAAAAAAAAAAAAAAAAAAAAAAAAAAAAAAAAAAAAAAAAAAAAAAAAAAAAAAAAAAAAAAAAAAAAAAAAAAAAAAAAAAAAAAAAAAAAAAAAAAAAAAAAAAAAAAAAAAAAAAAAAAAAAAAAAAAAAAAAAAAAAAAAAAAAAAAAAAAAAAAAAAAAAAAAAAAAAAAAAAAAAAAAAAAAAAAAAAAAAAAAAAAAAAAAAAAAAAAAAAAAAAAAAAAAAAAAAAAAAAAAAAAAAAAAAAAAAAAAAAAAAAAAAAAAAAAAAAAAAAAAAAAAAAAAAAAAAAAAAAAAAAAAAAAAAAAAAAAAAAAAAAAAAAAAAAAAAAAAAAAAAAAAAAAAAAAAAAAAAAAAAAAAAAAAAAAAAAAAAAAAAAAAAAAAAAAAAAAAAAAAAAAAAAAAAAAAAAAAAAAAAAAAAAAAAAAAAAAAAAAAAAAAAAAAAAAAAAAAAAAAAAAAAAAAAAAAAAAAAAAAAAAAAAAAAAAAAAAAAAAAAAAAAAAAAAAAAAAAAAAAAAAAAAAAAAAAAAAAAAAAAAAAAAAAAAAAAAAAAAAAAAAAAAAAAAAAAAAAAAAAAAAAAAAAAAAAAAAAAAAAAAAAAAAAAAAAAAAAAAAAAAAAAAAAAAAAAAAAAAAAAAAAAAAAAAAAAAAAAAAAAAAAAAAAAAAAAAAAAAAAAAAAAAAAAAAAAAAAAAAAAAAAAAAAAAAAAAAAAAAAAAAAAAAAAAAAAAAAAAAAAAAAAAAAAAAAAAAAAAAAAAAAAAAAAAAAAAAAAAAAAAAAAAAAAAAAAAAAAAAAAAAAAAAAAAAAAAAAAAAAAAAAAAAAAAAAAAAAAAAAAAAAAAAAAAAAAAAAAAAAAAAAAAAAAAAAAAAAAAAAAAAAAAAAAAAAAAAAAAAAAAAAAAAAAAAAAAAAAAAAAAAAAAAAAAAAAAAAAAAAAAAAAAAAAAAAAAAAAAAAAAAAAAAAAAAAAAAAAAAAAAAAAAAAAAAAAAAAAAAAAAAAAAAAAAAAAAAAAAAAAAAAAAAAAAAAAAAAAAAAAAAAAAAAAAAAAAAAAAAAAAAAAAAAAAAAAAAAAAAAAAAAAAAAAAAAAAAAAAAAAAAAAAAAAAAAAAAAAAAAAAAAAAAAAAAAAAAAAAAAAAAAAAAAAAAAAAAAAAAAAAAAAAAAAAAAAAAAAAAAAAAAAAAAAAAAAAAAAAAAAAAAAAAAAAAAAAAAAAAAAAAAAAAAAAAAAAAAAAAAAAAAAAAAAAAAAAAAAAAAAAAAAAAAAAAAAAAAAAAAAAAAAAAAAAAAAAAAAAAAAAAAAAAAAAAAAAAAAAAAAAAAAAAAAAAAAAAAAAAAAAAAAAAAAAAAAAAAAAAAAAAAAAAAAAAAAAAAAAAAAAAAAAAAAAAAAAAAAAAAAAAAAAAAAAAAAAAAAAAAAAAAAAAAAAAAAAAAAAAAAAAAAAAAAAAAAAAAAAAAAAAAAAAAAAAAAAAAAAAAAAAAAAAAAAAAAAAAAAAAAAAAAAAAAAAAAAAAAAAAAAAAAAAAAAAAAAAAAAAAAAAAAAAAAAAAAAAAAAAAAAAAAAAAAAAAAAAAAAAAAAAAAAAAAAAAAAAAAAAAAAAAAAAAAAAAAAAAAAAAAAAAAAAAAAAAAAAAAAAAAAAAAAAAAAAAAAAAAAAAAAAAAAAAAAAAAAAAAAAAAAAAAAAAAAAAAAAAAAAAAAAAAAAAAAAAAAAAAAAAAAAAAAAAAAAAAAAAAAAAAAAAAAAAAAAAAAAAAAAAAAAAAAAAAAAAAAAAAAAAAAAAAAAAAAAAAAAAAAAAAAAAAAAAAAAAAAAAAAAAAAAAAAAAAAAAAAAAAAAAAAAAAAAAAAAAAAAAAAAAAAAAAAAAAAAAAAAAAAAAAAAAAAAAAAAAAAAAAAAAAAAAAAAAAAAAAAAAAAAAAAAAAAAAAAAAAAAAAAAAAAAAAAAAAAAAAAAAAAAAAAAAAAAAAAAAAAAAAAAAAAAAAAAAAAAAAAAAAAAAAAAAAAAAAAAAAAAAAAAAAAAAAAAAAAAAAAAAAAAAAAAAAAAAAAAAAAAAAAAAAAAAAAAAAAAAAAAAAAAAAAAAAAAAAAAAAAAAAAAAAAAAAAAAAAAAAAAAAAAAAAAAAAAAAAAAAAAAAAAAAAAAAAAAAAAAAAAAAAAAAAAAAAAAAAAAAAAAAAAAAAAAAAAAAAAAAAAAAAAAAAAAAAAAAAAAAAAAAAAAAAAAAAAAAAAAAAAAAAAAAAAAAAAAAAAAAAAAAAAAAAAAAAAAAAAAAAAAAAAAAAAAAAAAAAAAAAAAAAAAAAAAAAAAAAAAAAAAAAAAAAAAAAAAAAAAAAAAAAAAAAAAAAAAAAAAAAAAAAAAAAAAAAAAAAAAAAAAAAAAAAAAAAAAAAAAAAAAAAAAAAAAAAAAAAAAAAAAAAAAAAAAAAAAAAAAAAAAAAAAAAAAAAAAAAAAAAAAAAAAAAAAAAAAAAAAAAAAAAAAAAAAAAAAAAAAAAAAAAAAAAAAAAAAAAAAAAAAAAAAAAAAAAAAAAAAAAAAAAAAAAAAAAAAAAAAAAAAAAAAAAAAAAAAAAAAAAAAAAAAAAAAAAAAAAAAAAAAAAAAAAAAAAAAAAAAAAAAAAAAAAAAAAAAAAAAAAAAAAAAAAAAAAAAAAAAAAAAAAAAAAAAAAAAAAAAAAAAAAAAAAAAAAAAAAAAAAAAAAAAAAAAAAAAAAAAAAAAAAAAAAAAAAAAAAAAAAAAAAAAAAAAAAAAAAAAAAAAAAAAAAAAAAAAAAAAAAAAAAAAAAAAAAAAAAAAAAAAAAAAAAAAAAAAAAAAAAAAAAAAAAAAAAAAAAAAAAAAAAAAAAAAAAAAAAAAAAAAAAAAAAAAAAAAAAAAAAAAAAAAAAAAAAAAAAAAAAAAAAAAAAAAAAAAAAAAAAAAAAAAAAAAAAAAAAAAAAAAAAAAAAAAAAAAAAAAAAAAAAAAAAAAAAAAAAAAAAAAAAAAAAAAAAAAAAAAAAAAAAAAAAAAAAAAAAAAAAAAAAAAAAAAAAAAAAAAAAAAAAAAAAAAAAAAAAAAAAAAAAAAAAAAAAAAAAAAAAAAAAAAAAAAAAAAAAAAAAAAAAAAAAAAAAAAAAAAAAAAAAAAAAAAAAAAAAAAAAAAAAAAAAAAAAAAAAAAAAAAAAAAAAAAAAAAAAAAAAAAAAAAAAAAAAAAAAAAAAAAAAAAAAAAAAAAAAAAAAAAAAAAAAAAAAAAAAAAAAAAAAAAAAAAAAAAAAAAAAAAAAAAAAAAAAAAAAAAAAAAAAAAAAAAAAAAAAAAAAAAAAAAAAAAAAAAAAAAAAAAAAAAAAAAAAAAAAAAAAAAAAAAAAAAAAAAAAAAAAAAAAAAAAAAAAAAAAAAAAAAAAAAAAAAAAAAAAAAAAAAAAAAAAAAAAAAAAAAAAAAAAAAAAAAAAAAAAAAAAAAAAAAAAAAAAAAAAAAAAAAAAAAAAAAAAAAAAAAAAAAAAAAAAAAAAAAAAAAAAAAAAAAAAAAAAAAAAAAAAAAAAAAAAAAAAAAAAAAAAAAAAAAAAAAAAAAAAAAAAAAAAAAAAAAAAAAAAAAAAAAAAAAAAAAAAAAAAAAAAAAAAAAAAAAAAAAAAAAAAAAAAAAAAAAAAAAAAAAAAAAAAAAAAAAAAAAAAAAAAAAAAAAAAAAAAAAAAAAAAAAAAAAAAAAAAAAAAAAAAAAAAAAAAAAAAAAAAAAAAAAAAAAAAAAAAAAAAAAAAAAAAAAAAAAAAAAAAAAAAAAAAAAAAAAAAAAAAAAAAAAAAAAAAAAAAAAAAAAAAAAAAAAAAAAAAAAAAAAAAAAAAAAAAAAAAAAAAAAAAAAAAAAAAAAAAAAAAAAAAAAAAAAAAAAAAAAAAAAAAAAAAAAAAAAAAAAAAAAPZYQOdD64A+wFfkfCw0uBKtLKfXivU20laIM2RN2Ih9fcMvLOCFpcKtSIPCuzcfBueMNK7g/aMwWTn6oyABV8/Se70=</c2pa:manifest></metadata><title>XENO Company file</title><defs><clipPath id="u"><path d="M -10 -10 L 122 -10 L -10 122 Z"></path></clipPath></defs><path d="M 6 0 L 100 0 L 100 84 L 84 100 L 0 100 L 0 6 A 6 6 0 0 1 6 0 Z" fill="#0B0B0B"></path><g clip-path="url(#u)" fill="#F8AC3D"><path transform="translate(9.00 88) scale(0.044 -0.044)" d="M487 -12Q343 -12 247 28.5Q151 69 103 148Q55 227 55 344Q55 515 165.5 607.5Q276 700 488 700Q606 700 696 664.5Q786 629 836.5 564.5Q887 500 887 412L689 412Q689 455 663.5 485.5Q638 516 592 532.5Q546 549 485 549Q413 549 364 524.5Q315 500 289.5 457Q264 414 264 357L264 332Q264 275 289.5 231.5Q315 188 363.5 163.5Q412 139 482 139Q548 139 595.5 154.5Q643 170 668.5 200Q694 230 694 272L888 272Q888 187 839 123Q790 59 700.5 23.5Q611 -12 487 -12Z"></path><path transform="translate(48.95 88) scale(0.044 -0.044)" d="M390 -12Q285 -12 207 18.5Q129 49 85.5 110.5Q42 172 42 264Q42 357 85.5 418Q129 479 207 509.5Q285 540 390 540Q496 540 574 509.5Q652 479 695 418Q738 357 738 264Q738 172 695 110.5Q652 49 574 18.5Q496 -12 390 -12ZM390 113Q443 113 478 131Q513 149 530.5 180.5Q548 212 548 254L548 274Q548 316 530.5 347.5Q513 379 478 396.5Q443 414 390 414Q338 414 303 396.5Q268 379 250.5 347.5Q233 316 233 274L233 254Q233 212 250.5 180.5Q268 149 303 131Q338 113 390 113Z"></path></g><g fill="#FFCD62"><rect x="60.25" y="63.58" width="2.83" height="2.83"></rect><rect x="63.58" y="63.58" width="2.83" height="2.83"></rect><rect x="66.92" y="63.58" width="2.83" height="2.83"></rect><rect x="70.25" y="63.58" width="2.83" height="2.83"></rect><rect x="43.58" y="66.92" width="2.83" height="2.83"></rect><rect x="53.58" y="66.92" width="2.83" height="2.83"></rect><rect x="56.92" y="66.92" width="2.83" height="2.83"></rect><rect x="60.25" y="66.92" width="2.83" height="2.83"></rect><rect x="63.58" y="66.92" width="2.83" height="2.83"></rect><rect x="66.92" y="66.92" width="2.83" height="2.83"></rect><rect x="70.25" y="66.92" width="2.83" height="2.83"></rect><rect x="73.58" y="66.92" width="2.83" height="2.83"></rect><rect x="76.92" y="66.92" width="2.83" height="2.83"></rect><rect x="50.25" y="70.25" width="2.83" height="2.83"></rect><rect x="53.58" y="70.25" width="2.83" height="2.83"></rect><rect x="56.92" y="70.25" width="2.83" height="2.83"></rect><rect x="70.25" y="70.25" width="2.83" height="2.83"></rect><rect x="73.58" y="70.25" width="2.83" height="2.83"></rect><rect x="76.92" y="70.25" width="2.83" height="2.83"></rect><rect x="50.25" y="73.58" width="2.83" height="2.83"></rect><rect x="53.58" y="73.58" width="2.83" height="2.83"></rect><rect x="56.92" y="73.58" width="2.83" height="2.83"></rect><rect x="73.58" y="73.58" width="2.83" height="2.83"></rect><rect x="76.92" y="73.58" width="2.83" height="2.83"></rect><rect x="36.92" y="76.92" width="2.83" height="2.83"></rect><rect x="40.25" y="76.92" width="2.83" height="2.83"></rect><rect x="43.58" y="76.92" width="2.83" height="2.83"></rect><rect x="50.25" y="76.92" width="2.83" height="2.83"></rect><rect x="53.58" y="76.92" width="2.83" height="2.83"></rect><rect x="56.92" y="76.92" width="2.83" height="2.83"></rect><rect x="73.58" y="76.92" width="2.83" height="2.83"></rect><rect x="76.92" y="76.92" width="2.83" height="2.83"></rect><rect x="33.58" y="80.25" width="2.83" height="2.83"></rect><rect x="36.92" y="80.25" width="2.83" height="2.83"></rect><rect x="40.25" y="80.25" width="2.83" height="2.83"></rect><rect x="43.58" y="80.25" width="2.83" height="2.83"></rect><rect x="50.25" y="80.25" width="2.83" height="2.83"></rect><rect x="53.58" y="80.25" width="2.83" height="2.83"></rect><rect x="56.92" y="80.25" width="2.83" height="2.83"></rect><rect x="60.25" y="80.25" width="2.83" height="2.83"></rect><rect x="70.25" y="80.25" width="2.83" height="2.83"></rect><rect x="73.58" y="80.25" width="2.83" height="2.83"></rect><rect x="76.92" y="80.25" width="2.83" height="2.83"></rect><rect x="26.92" y="83.58" width="2.83" height="2.83"></rect><rect x="30.25" y="83.58" width="2.83" height="2.83"></rect><rect x="33.58" y="83.58" width="2.83" height="2.83"></rect><rect x="36.92" y="83.58" width="2.83" height="2.83"></rect><rect x="40.25" y="83.58" width="2.83" height="2.83"></rect><rect x="53.58" y="83.58" width="2.83" height="2.83"></rect><rect x="56.92" y="83.58" width="2.83" height="2.83"></rect><rect x="60.25" y="83.58" width="2.83" height="2.83"></rect><rect x="63.58" y="83.58" width="2.83" height="2.83"></rect><rect x="66.92" y="83.58" width="2.83" height="2.83"></rect><rect x="70.25" y="83.58" width="2.83" height="2.83"></rect><rect x="73.58" y="83.58" width="2.83" height="2.83"></rect><rect x="26.92" y="86.92" width="2.83" height="2.83"></rect><rect x="30.25" y="86.92" width="2.83" height="2.83"></rect><rect x="33.58" y="86.92" width="2.83" height="2.83"></rect><rect x="60.25" y="86.92" width="2.83" height="2.83"></rect><rect x="63.58" y="86.92" width="2.83" height="2.83"></rect><rect x="66.92" y="86.92" width="2.83" height="2.83"></rect></g></svg>