<svg xmlns="http://www.w3.org/2000/svg" viewBox="-1 -1 102 102" width="512" height="512" xmlns:c2pa="http://c2pa.org/manifest"><metadata><c2pa:manifest>AAAWgmp1bWIAAAAeanVtZGMycGEAEQAQgAAAqgA4m3EDYzJwYQAAABZcanVtYgAAAEdqdW1kYzJtYQARABCAAACqADibcQN1cm46YzJwYTplMDE5MTg5Yi02MTU1LTRjNzktYWE1NC1lYTQ5MDkyM2I3MzMAAAADl2p1bWIAAAApanVtZGMyYXMAEQAQgAAAqgA4m3EDYzJwYS5hc3NlcnRpb25zAAAAALxqdW1iAAAARGp1bWRjYm9yABEAEIAAAKoAOJtxE2MycGEuaW5ncmVkaWVudC52MwAAAAAYYzJzaBRG1zy03Ld8mTlDmK5t9D8AAABwY2JvcqNpZGM6Zm9ybWF0bWltYWdlL3N2Zyt4bWxqaW5zdGFuY2VJRHgseG1wOmlpZDpmMTk2MDM3Yi1lN2QwLTRhYzItYjlmZi03NjU4ZDNkZTk3NWRscmVsYXRpb25zaGlwaHBhcmVudE9mAAAB4mp1bWIAAABBanVtZGNib3IAEQAQgAAAqgA4m3ETYzJwYS5hY3Rpb25zLnYyAAAAABhjMnNoBzPY7c6BD3/W1xp0C+ZiXQAAAZljYm9yomdhY3Rpb25zgqJmYWN0aW9ua2MycGEub3BlbmVkanBhcmFtZXRlcnOha2luZ3JlZGllbnRzgaJjdXJseC1zZWxmI2p1bWJmPWMycGEuYXNzZXJ0aW9ucy9jMnBhLmluZ3JlZGllbnQudjNkaGFzaFggbtWD5tTz+QdDDLavrpnWsqcmYxg3FJJjTwBC/d4fXamkZmFjdGlvbngdY29tLmFudGhyb3BpYy5jbGF1ZGUucHJvdmlkZWRqcGFyYW1ldGVyc6F4H2NvbS5hbnRocm9waWMub3JpZ2luLWNvbmZpZGVuY2VndW5rbm93bmtkZXNjcmlwdGlvbnhmQ2xhdWRlIHByb3ZpZGVkIHRoaXMgZmlsZSBhdCB0aGUgcmVxdWVzdCBvZiBhIHVzZXIgYW5kIG1heSBoYXZlIGNyZWF0ZWQgb3IgbW9kaWZpZWQgdGhlIGZpbGUgY29udGVudHMubXNvZnR3YXJlQWdlbnShZG5hbWVmQ2xhdWRlcmFsbEFjdGlvbnNJbmNsdWRlZPUAAADIanVtYgAAAEBqdW1kY2JvcgARABCAAACqADibcRNjMnBhLmhhc2guZGF0YQAAAAAYYzJzaDj4Li1sRkh6KrJsARvfO6cAAACAY2JvcqVjYWxnZnNoYTI1NmNwYWRNAAAAAAAAAAAAAAAAAGRoYXNoWCAiXB7e+GIYT/qprzD186QtDzNetrvR93Kttn/mS+MZhWRuYW1lbmp1bWJmIG1hbmlmZXN0amV4Y2x1c2lvbnOBomVzdGFydBiYZmxlbmd0aBkeBAAAAj5qdW1iAAAAJ2p1bWRjMmNsABEAEIAAAKoAOJtxA2MycGEuY2xhaW0udjIAAAACD2Nib3KlY2FsZ2ZzaGEyNTZpc2lnbmF0dXJleE1zZWxmI2p1bWJmPS9jMnBhL3VybjpjMnBhOmUwMTkxODliLTYxNTUtNGM3OS1hYTU0LWVhNDkwOTIzYjczMy9jMnBhLnNpZ25hdHVyZWppbnN0YW5jZUlEeCx4bXA6aWlkOjA1NWU3ZTc3LTQyZGMtNGFkMi1hNjkxLThkMTE4NzdlY2NlNXJjcmVhdGVkX2Fzc2VydGlvbnODomN1cmx4LXNlbGYjanVtYmY9YzJwYS5hc3NlcnRpb25zL2MycGEuaW5ncmVkaWVudC52M2RoYXNoWCBu1YPm1PP5B0MMtq+umdaypyZjGDcUkmNPAEL93h9dqaJjdXJseCpzZWxmI2p1bWJmPWMycGEuYXNzZXJ0aW9ucy9jMnBhLmFjdGlvbnMudjJkaGFzaFggjFyB/xB2IcGmuMVtBEF/fg58LXmxiEFbP+7249DplhyiY3VybHgpc2VsZiNqdW1iZj1jMnBhLmFzc2VydGlvbnMvYzJwYS5oYXNoLmRhdGFkaGFzaFgg2XM7bYmGupcf1qBwSHDaWtRPq4oxOfYAGnihT/lsNMx0Y2xhaW1fZ2VuZXJhdG9yX2luZm+jZG5hbWVvQW50aHJvcGljIEZpbGVzZ3ZlcnNpb25lMS4wLjBrc3BlY1ZlcnNpb25lMi40LjAAABA4anVtYgAAAChqdW1kYzJjcwARABCAAACqADibcQNjMnBhLnNpZ25hdHVyZQAAABAIY2JvctKEWQISogEmGCFZAgowggIGMIIBjaADAgECAhRA5aAK7sI50L64g/oGQgU9Z1UTADAKBggqhkjOPQQDAzBJMRcwFQYDVQQKEw5BbnRocm9waWMsIFBCQzEuMCwGA1UEAxMlQW50aHJvcGljIENvbnRlbnQgQ3JlZGVudGlhbHMgUm9vdCBDQTAeFw0yNjA4MDcxODQzNTZaFw0yODA4MDYxOTQzNTZaMEQxFzAVBgNVBAoTDkFudGhyb3BpYywgUEJDMSkwJwYDVQQDEyBBbnRocm9waWMgQ2xhdWRlIENvbnRlbnQgU2lnbmluZzBZMBMGByqGSM49AgEGCCqGSM49AwEHA0IABJh6CmvLUBgFFNU0vUKlOVtE6djd17L5SuwX0LemFisBM3dkd/3cyjxFA3Qo5S46fX0/ihY0VZ7mfb9KF703t5OjWDBWMA4GA1UdDwEB/wQEAwIHgDAVBgNVHSUEDjAMBgorBgEEAYPoXgIBMAwGA1UdEwEB/wQCMAAwHwYDVR0jBBgwFoAUzlHiBIFOZFsj+OPEz5o+nMHXXMIwCgYIKoZIzj0EAwMDZwAwZAIwMXMdFJ4BetLLVY7ORuE9noqbbAZOZn/aArXyTwFAZfKrPzxF2vPoJNf1+UCdg1XGAjBwX1zd9WGqYkqmL5SFqw1QySjr1zJfpJM9+1rdDwSPLMOPOjKuiXjoU/pUUeG9RwmhY3BhZFkNngAAAAAAAAAAAAAAAAAAAAAAAAAAAAAAAAAAAAAAAAAAAAAAAAAAAAAAAAAAAAAAAAAAAAAAAAAAAAAAAAAAAAAAAAAAAAAAAAAAAAAAAAAAAAAAAAAAAAAAAAAAAAAAAAAAAAAAAAAAAAAAAAAAAAAAAAAAAAAAAAAAAAAAAAAAAAAAAAAAAAAAAAAAAAAAAAAAAAAAAAAAAAAAAAAAAAAAAAAAAAAAAAAAAAAAAAAAAAAAAAAAAAAAAAAAAAAAAAAAAAAAAAAAAAAAAAAAAAAAAAAAAAAAAAAAAAAAAAAAAAAAAAAAAAAAAAAAAAAAAAAAAAAAAAAAAAAAAAAAAAAAAAAAAAAAAAAAAAAAAAAAAAAAAAAAAAAAAAAAAAAAAAAAAAAAAAAAAAAAAAAAAAAAAAAAAAAAAAAAAAAAAAAAAAAAAAAAAAAAAAAAAAAAAAAAAAAAAAAAAAAAAAAAAAAAAAAAAAAAAAAAAAAAAAAAAAAAAAAAAAAAAAAAAAAAAAAAAAAAAAAAAAAAAAAAAAAAAAAAAAAAAAAAAAAAAAAAAAAAAAAAAAAAAAAAAAAAAAAAAAAAAAAAAAAAAAAAAAAAAAAAAAAAAAAAAAAAAAAAAAAAAAAAAAAAAAAAAAAAAAAAAAAAAAAAAAAAAAAAAAAAAAAAAAAAAAAAAAAAAAAAAAAAAAAAAAAAAAAAAAAAAAAAAAAAAAAAAAAAAAAAAAAAAAAAAAAAAAAAAAAAAAAAAAAAAAAAAAAAAAAAAAAAAAAAAAAAAAAAAAAAAAAAAAAAAAAAAAAAAAAAAAAAAAAAAAAAAAAAAAAAAAAAAAAAAAAAAAAAAAAAAAAAAAAAAAAAAAAAAAAAAAAAAAAAAAAAAAAAAAAAAAAAAAAAAAAAAAAAAAAAAAAAAAAAAAAAAAAAAAAAAAAAAAAAAAAAAAAAAAAAAAAAAAAAAAAAAAAAAAAAAAAAAAAAAAAAAAAAAAAAAAAAAAAAAAAAAAAAAAAAAAAAAAAAAAAAAAAAAAAAAAAAAAAAAAAAAAAAAAAAAAAAAAAAAAAAAAAAAAAAAAAAAAAAAAAAAAAAAAAAAAAAAAAAAAAAAAAAAAAAAAAAAAAAAAAAAAAAAAAAAAAAAAAAAAAAAAAAAAAAAAAAAAAAAAAAAAAAAAAAAAAAAAAAAAAAAAAAAAAAAAAAAAAAAAAAAAAAAAAAAAAAAAAAAAAAAAAAAAAAAAAAAAAAAAAAAAAAAAAAAAAAAAAAAAAAAAAAAAAAAAAAAAAAAAAAAAAAAAAAAAAAAAAAAAAAAAAAAAAAAAAAAAAAAAAAAAAAAAAAAAAAAAAAAAAAAAAAAAAAAAAAAAAAAAAAAAAAAAAAAAAAAAAAAAAAAAAAAAAAAAAAAAAAAAAAAAAAAAAAAAAAAAAAAAAAAAAAAAAAAAAAAAAAAAAAAAAAAAAAAAAAAAAAAAAAAAAAAAAAAAAAAAAAAAAAAAAAAAAAAAAAAAAAAAAAAAAAAAAAAAAAAAAAAAAAAAAAAAAAAAAAAAAAAAAAAAAAAAAAAAAAAAAAAAAAAAAAAAAAAAAAAAAAAAAAAAAAAAAAAAAAAAAAAAAAAAAAAAAAAAAAAAAAAAAAAAAAAAAAAAAAAAAAAAAAAAAAAAAAAAAAAAAAAAAAAAAAAAAAAAAAAAAAAAAAAAAAAAAAAAAAAAAAAAAAAAAAAAAAAAAAAAAAAAAAAAAAAAAAAAAAAAAAAAAAAAAAAAAAAAAAAAAAAAAAAAAAAAAAAAAAAAAAAAAAAAAAAAAAAAAAAAAAAAAAAAAAAAAAAAAAAAAAAAAAAAAAAAAAAAAAAAAAAAAAAAAAAAAAAAAAAAAAAAAAAAAAAAAAAAAAAAAAAAAAAAAAAAAAAAAAAAAAAAAAAAAAAAAAAAAAAAAAAAAAAAAAAAAAAAAAAAAAAAAAAAAAAAAAAAAAAAAAAAAAAAAAAAAAAAAAAAAAAAAAAAAAAAAAAAAAAAAAAAAAAAAAAAAAAAAAAAAAAAAAAAAAAAAAAAAAAAAAAAAAAAAAAAAAAAAAAAAAAAAAAAAAAAAAAAAAAAAAAAAAAAAAAAAAAAAAAAAAAAAAAAAAAAAAAAAAAAAAAAAAAAAAAAAAAAAAAAAAAAAAAAAAAAAAAAAAAAAAAAAAAAAAAAAAAAAAAAAAAAAAAAAAAAAAAAAAAAAAAAAAAAAAAAAAAAAAAAAAAAAAAAAAAAAAAAAAAAAAAAAAAAAAAAAAAAAAAAAAAAAAAAAAAAAAAAAAAAAAAAAAAAAAAAAAAAAAAAAAAAAAAAAAAAAAAAAAAAAAAAAAAAAAAAAAAAAAAAAAAAAAAAAAAAAAAAAAAAAAAAAAAAAAAAAAAAAAAAAAAAAAAAAAAAAAAAAAAAAAAAAAAAAAAAAAAAAAAAAAAAAAAAAAAAAAAAAAAAAAAAAAAAAAAAAAAAAAAAAAAAAAAAAAAAAAAAAAAAAAAAAAAAAAAAAAAAAAAAAAAAAAAAAAAAAAAAAAAAAAAAAAAAAAAAAAAAAAAAAAAAAAAAAAAAAAAAAAAAAAAAAAAAAAAAAAAAAAAAAAAAAAAAAAAAAAAAAAAAAAAAAAAAAAAAAAAAAAAAAAAAAAAAAAAAAAAAAAAAAAAAAAAAAAAAAAAAAAAAAAAAAAAAAAAAAAAAAAAAAAAAAAAAAAAAAAAAAAAAAAAAAAAAAAAAAAAAAAAAAAAAAAAAAAAAAAAAAAAAAAAAAAAAAAAAAAAAAAAAAAAAAAAAAAAAAAAAAAAAAAAAAAAAAAAAAAAAAAAAAAAAAAAAAAAAAAAAAAAAAAAAAAAAAAAAAAAAAAAAAAAAAAAAAAAAAAAAAAAAAAAAAAAAAAAAAAAAAAAAAAAAAAAAAAAAAAAAAAAAAAAAAAAAAAAAAAAAAAAAAAAAAAAAAAAAAAAAAAAAAAAAAAAAAAAAAAAAAAAAAAAAAAAAAAAAAAAAAAAAAAAAAAAAAAAAAAAAAAAAAAAAAAAAAAAAAAAAAAAAAAAAAAAAAAAAAAAAAAAAAAAAAAAAAAAAAAAAAAAAAAAAAAAAAAAAAAAAAAAAAAAAAAAAAAAAAAAAAAAAAAAAAAAAAAAAAAAAAAAAAAAAAAAAAAAAAAAAAAAAAAAAAAAAAAAAAAAAAAAAAAAAAAAAAAAAAAAAAAAAAAAAAAAAAAAAAAAAAAAAAAAAAAAAAAAAAAAAAAAAAAAAAAAAAAAAAAAAAAAAAAAAAAAAAAAAAAAAAAAAAAAAAAAAAAAAAAAAAAAAAAAAAAAAAAAAAAAAAAAAAAAAAAAAAAAAAAAAAAAAAAAAAAAAAAAAAAAAAAAAAAAAAAAAAAAAAAAAAAAAAAAAAAAAAAAAAAAAAAAAAAAAAAAAAAAAAAAAAAAAAAAAAAAAAAAAAAAAAAAAAAAAAAAAAAAAAAAAAAAAAAAAAAAAAAAAAAAAAAAAAAAAAAAAAAAAAAAAAAAAAAAAAAAAAAAAAAAAAAAAAAAAAAAAAAAAAAAAAAAAAAAAAAAAAAAAAAAAAAAAAAAAAAAAAAAAAAAAAAAAAAAAAAAAAAAAAAAAAAAAAAAAAAAAAAAAAAAAAAAAAAAAAAAAAAAAAAAAAAAAAAAAAAAAAAAAAAAAAAAAAAAAAAAAAAAAAAAAAAAAAAAAAAAAAAAAAAAAAAAAAAAAAAAAAAAAAAAAAAAAAAAAAAAAAAAAAAAAAAAAAAAAAAAAAAAAAAAAAAAAAAAAAAAAAAAAAAAAAAAAAAAAAAAAAAAAAAAAAAAAAAAAAAAAAAAAAAAAAAAAAAAAAAAAAAAAAAAAAAAAAAAAAAAAAAAAAAAAAAAAAAAAAAAAAAAAAAAAAAAAAAAAAAAAAAAAAAAAAAAAAAAAAAAAAAAAAAAAAAAAAAAAAAAAAAAAAAAAAAAAAAAAAAAAAAAAAAAAAAAAAAAAAAAAAAAAAAAAAAAAAAAAAAAAAAAAAAAAAAAAAAAAAAAAAAAAAAAAAAAAAAAAAAAAAAAAAAAAAAAAAAAAAAAAAAAAAAAAAAAAAAAAAAAAAAAAAAAAAAAAAAAAAAAAAAAAAAAAAAAAAAAAAAAAAAAAAAAAAAAAAAAAAAAAAAAAAAAAAAAAAAAAAAAAAAAAAAAAAAAAAAAAAAAAAAAAAAAAAAAAAAAAAAAAAAAAAAAAAAAAAAAAAAAAAAAAAAAAAAAAAAAAAAAAAAAAAAAAAAAAAAAAAAAAAAAAAAAAAAAAAAAAAAAAAAAAAAAAAAAAAAAAAAAAAAAAAAAAAAAAAAAAAAAAAAAAAAAAAAAAAAAAAAAAAAAAAAAAAAAAAAAAAAAAAAAAAAAAAAAAAAAAAAAAAAAAAAAAAAAAAAAAAAAAAAAAAAAAAAAAAAAAAAAAAAAAAAAAAAAAAAAAAAAAAAAAAAAAAAAAAAAAAAAAAAAAAAAAAAAAAAAAAAAAAAAAAAAAAAAAAAAAAAAAAAAAAAAAAAAAAAAAAAAAAAAAAAAAAAAAAAAAAAAAAAAAAAAAAAAAAAAAAAAAAAAAAAAAAAAAAAAAAAAAAAAAAAAAAAAAAAAAAAAAAAAAAAAAAAAAAAAAAAAAAAAAAAAAAAAAAAAAAAAAAAAAAAAAAAAAAAAAAAAAAAAAAAAAAAAAAAAAAAAAAAAAAAAAAAAPZYQF9VpyWQQTaNcJCSzTSY0T2D196iSLBSjvp9YgG29rSfZZbvqFbBcyOt6PPjbxomALFIJU2SgMpyeBpU2G66rUU=</c2pa:manifest></metadata><title>XENO Marketplace file</title><defs><clipPath id="u"><path d="M -10 -10 L 122 -10 L -10 122 Z"></path></clipPath></defs><path d="M 6 0 L 100 0 L 100 84 L 84 100 L 0 100 L 0 6 A 6 6 0 0 1 6 0 Z" fill="#0B0B0B"></path><g clip-path="url(#u)" fill="#E8E8E3"><path transform="translate(9.00 88) scale(0.044 -0.044)" d="M85 0L85 688L403 688L521 389Q529 371 538.5 343Q548 315 557.5 285.5Q567 256 575 233L582 233Q588 254 597.5 282Q607 310 617.5 338.5Q628 367 636 389L754 688L1063 688L1063 0L860 0L860 355Q860 376 860.5 402Q861 428 862 453Q863 478 863 496L855 496Q849 477 840 451Q831 425 822.5 399.5Q814 374 806 355L662 0L476 0L331 355Q321 381 311.5 408Q302 435 294.5 458.5Q287 482 282 496L274 496Q275 482 275.5 459Q276 436 276.5 409Q277 382 277 355L277 0Z"></path><path transform="translate(58.01 88) scale(0.044 -0.044)" d="M65 0L65 725L250 725L250 312L490 528L717 528L495 317L724 0L506 0L355 215L250 139L250 0Z"></path></g><g fill="#FFFFFF"><rect x="53.58" y="56.92" width="2.83" height="2.83"></rect><rect x="60.25" y="56.92" width="2.83" height="2.83"></rect><rect x="63.58" y="56.92" width="2.83" height="2.83"></rect><rect x="66.92" y="56.92" width="2.83" height="2.83"></rect><rect x="50.25" y="60.25" width="2.83" height="2.83"></rect><rect x="53.58" y="60.25" width="2.83" height="2.83"></rect><rect x="60.25" y="60.25" width="2.83" height="2.83"></rect><rect x="63.58" y="60.25" width="2.83" height="2.83"></rect><rect x="66.92" y="60.25" width="2.83" height="2.83"></rect><rect x="46.92" y="63.58" width="2.83" height="2.83"></rect><rect x="50.25" y="63.58" width="2.83" height="2.83"></rect><rect x="53.58" y="63.58" width="2.83" height="2.83"></rect><rect x="60.25" y="63.58" width="2.83" height="2.83"></rect><rect x="63.58" y="63.58" width="2.83" height="2.83"></rect><rect x="66.92" y="63.58" width="2.83" height="2.83"></rect><rect x="80.25" y="63.58" width="2.83" height="2.83"></rect><rect x="83.58" y="63.58" width="2.83" height="2.83"></rect><rect x="43.58" y="66.92" width="2.83" height="2.83"></rect><rect x="46.92" y="66.92" width="2.83" height="2.83"></rect><rect x="50.25" y="66.92" width="2.83" height="2.83"></rect><rect x="53.58" y="66.92" width="2.83" height="2.83"></rect><rect x="60.25" y="66.92" width="2.83" height="2.83"></rect><rect x="63.58" y="66.92" width="2.83" height="2.83"></rect><rect x="66.92" y="66.92" width="2.83" height="2.83"></rect><rect x="76.92" y="66.92" width="2.83" height="2.83"></rect><rect x="80.25" y="66.92" width="2.83" height="2.83"></rect><rect x="83.58" y="66.92" width="2.83" height="2.83"></rect><rect x="40.25" y="70.25" width="2.83" height="2.83"></rect><rect x="43.58" y="70.25" width="2.83" height="2.83"></rect><rect x="46.92" y="70.25" width="2.83" height="2.83"></rect><rect x="50.25" y="70.25" width="2.83" height="2.83"></rect><rect x="53.58" y="70.25" width="2.83" height="2.83"></rect><rect x="60.25" y="70.25" width="2.83" height="2.83"></rect><rect x="63.58" y="70.25" width="2.83" height="2.83"></rect><rect x="66.92" y="70.25" width="2.83" height="2.83"></rect><rect x="73.58" y="70.25" width="2.83" height="2.83"></rect><rect x="76.92" y="70.25" width="2.83" height="2.83"></rect><rect x="80.25" y="70.25" width="2.83" height="2.83"></rect><rect x="36.92" y="73.58" width="2.83" height="2.83"></rect><rect x="40.25" y="73.58" width="2.83" height="2.83"></rect><rect x="46.92" y="73.58" width="2.83" height="2.83"></rect><rect x="50.25" y="73.58" width="2.83" height="2.83"></rect><rect x="53.58" y="73.58" width="2.83" height="2.83"></rect><rect x="60.25" y="73.58" width="2.83" height="2.83"></rect><rect x="63.58" y="73.58" width="2.83" height="2.83"></rect><rect x="66.92" y="73.58" width="2.83" height="2.83"></rect><rect x="70.25" y="73.58" width="2.83" height="2.83"></rect><rect x="73.58" y="73.58" width="2.83" height="2.83"></rect><rect x="76.92" y="73.58" width="2.83" height="2.83"></rect><rect x="33.58" y="76.92" width="2.83" height="2.83"></rect><rect x="36.92" y="76.92" width="2.83" height="2.83"></rect><rect x="40.25" y="76.92" width="2.83" height="2.83"></rect><rect x="46.92" y="76.92" width="2.83" height="2.83"></rect><rect x="50.25" y="76.92" width="2.83" height="2.83"></rect><rect x="53.58" y="76.92" width="2.83" height="2.83"></rect><rect x="60.25" y="76.92" width="2.83" height="2.83"></rect><rect x="63.58" y="76.92" width="2.83" height="2.83"></rect><rect x="66.92" y="76.92" width="2.83" height="2.83"></rect><rect x="70.25" y="76.92" width="2.83" height="2.83"></rect><rect x="73.58" y="76.92" width="2.83" height="2.83"></rect><rect x="76.92" y="76.92" width="2.83" height="2.83"></rect><rect x="80.25" y="76.92" width="2.83" height="2.83"></rect><rect x="30.25" y="80.25" width="2.83" height="2.83"></rect><rect x="33.58" y="80.25" width="2.83" height="2.83"></rect><rect x="36.92" y="80.25" width="2.83" height="2.83"></rect><rect x="46.92" y="80.25" width="2.83" height="2.83"></rect><rect x="50.25" y="80.25" width="2.83" height="2.83"></rect><rect x="53.58" y="80.25" width="2.83" height="2.83"></rect><rect x="60.25" y="80.25" width="2.83" height="2.83"></rect><rect x="63.58" y="80.25" width="2.83" height="2.83"></rect><rect x="66.92" y="80.25" width="2.83" height="2.83"></rect><rect x="76.92" y="80.25" width="2.83" height="2.83"></rect><rect x="80.25" y="80.25" width="2.83" height="2.83"></rect><rect x="83.58" y="80.25" width="2.83" height="2.83"></rect><rect x="26.92" y="83.58" width="2.83" height="2.83"></rect><rect x="30.25" y="83.58" width="2.83" height="2.83"></rect><rect x="33.58" y="83.58" width="2.83" height="2.83"></rect><rect x="36.92" y="83.58" width="2.83" height="2.83"></rect><rect x="46.92" y="83.58" width="2.83" height="2.83"></rect><rect x="50.25" y="83.58" width="2.83" height="2.83"></rect><rect x="53.58" y="83.58" width="2.83" height="2.83"></rect><rect x="60.25" y="83.58" width="2.83" height="2.83"></rect><rect x="63.58" y="83.58" width="2.83" height="2.83"></rect><rect x="66.92" y="83.58" width="2.83" height="2.83"></rect><rect x="76.92" y="83.58" width="2.83" height="2.83"></rect><rect x="80.25" y="83.58" width="2.83" height="2.83"></rect><rect x="83.58" y="83.58" width="2.83" height="2.83"></rect></g></svg>