<svg xmlns="http://www.w3.org/2000/svg" viewBox="-1 -1 102 102" width="512" height="512" xmlns:c2pa="http://c2pa.org/manifest"><metadata><c2pa:manifest>AAAWgmp1bWIAAAAeanVtZGMycGEAEQAQgAAAqgA4m3EDYzJwYQAAABZcanVtYgAAAEdqdW1kYzJtYQARABCAAACqADibcQN1cm46YzJwYTowZmExMjhlNS01OWZmLTQ1MDAtYTA0Yy05YTcyNjAxZDEyYjMAAAADl2p1bWIAAAApanVtZGMyYXMAEQAQgAAAqgA4m3EDYzJwYS5hc3NlcnRpb25zAAAAALxqdW1iAAAARGp1bWRjYm9yABEAEIAAAKoAOJtxE2MycGEuaW5ncmVkaWVudC52MwAAAAAYYzJzaM0YqYxLqdkx3wSzO/FJkBgAAABwY2JvcqNpZGM6Zm9ybWF0bWltYWdlL3N2Zyt4bWxqaW5zdGFuY2VJRHgseG1wOmlpZDo2MGUyODc2NC1kY2E4LTQ3MGUtYmQ3MC1hMTZlMDViN2NmZDZscmVsYXRpb25zaGlwaHBhcmVudE9mAAAB4mp1bWIAAABBanVtZGNib3IAEQAQgAAAqgA4m3ETYzJwYS5hY3Rpb25zLnYyAAAAABhjMnNoRcu9mVYEn+rT9kxZbhdIiAAAAZljYm9yomdhY3Rpb25zgqJmYWN0aW9ua2MycGEub3BlbmVkanBhcmFtZXRlcnOha2luZ3JlZGllbnRzgaJjdXJseC1zZWxmI2p1bWJmPWMycGEuYXNzZXJ0aW9ucy9jMnBhLmluZ3JlZGllbnQudjNkaGFzaFggy2EgbpKfsp0HwkT3g12oRDbYGVd0BeVdw4X34OfGKx+kZmFjdGlvbngdY29tLmFudGhyb3BpYy5jbGF1ZGUucHJvdmlkZWRqcGFyYW1ldGVyc6F4H2NvbS5hbnRocm9waWMub3JpZ2luLWNvbmZpZGVuY2VndW5rbm93bmtkZXNjcmlwdGlvbnhmQ2xhdWRlIHByb3ZpZGVkIHRoaXMgZmlsZSBhdCB0aGUgcmVxdWVzdCBvZiBhIHVzZXIgYW5kIG1heSBoYXZlIGNyZWF0ZWQgb3IgbW9kaWZpZWQgdGhlIGZpbGUgY29udGVudHMubXNvZnR3YXJlQWdlbnShZG5hbWVmQ2xhdWRlcmFsbEFjdGlvbnNJbmNsdWRlZPUAAADIanVtYgAAAEBqdW1kY2JvcgARABCAAACqADibcRNjMnBhLmhhc2guZGF0YQAAAAAYYzJzaPk1WT2s1yGSnIrh6ZUo9VgAAACAY2JvcqVjYWxnZnNoYTI1NmNwYWRNAAAAAAAAAAAAAAAAAGRoYXNoWCDO9/b6nmhvum5vxtLt442neTal+dRfkXXtfnhaCpLe72RuYW1lbmp1bWJmIG1hbmlmZXN0amV4Y2x1c2lvbnOBomVzdGFydBiYZmxlbmd0aBkeBAAAAj5qdW1iAAAAJ2p1bWRjMmNsABEAEIAAAKoAOJtxA2MycGEuY2xhaW0udjIAAAACD2Nib3KlY2FsZ2ZzaGEyNTZpc2lnbmF0dXJleE1zZWxmI2p1bWJmPS9jMnBhL3VybjpjMnBhOjBmYTEyOGU1LTU5ZmYtNDUwMC1hMDRjLTlhNzI2MDFkMTJiMy9jMnBhLnNpZ25hdHVyZWppbnN0YW5jZUlEeCx4bXA6aWlkOmUzNGQzNTYwLWRiZGQtNDYwMy04MDA0LWJlNzI1YmRjMTVjOXJjcmVhdGVkX2Fzc2VydGlvbnODomN1cmx4LXNlbGYjanVtYmY9YzJwYS5hc3NlcnRpb25zL2MycGEuaW5ncmVkaWVudC52M2RoYXNoWCDLYSBukp+ynQfCRPeDXahENtgZV3QF5V3Dhffg58YrH6JjdXJseCpzZWxmI2p1bWJmPWMycGEuYXNzZXJ0aW9ucy9jMnBhLmFjdGlvbnMudjJkaGFzaFggC5tsTNRglFrkUf+mYI6DIW8pGinNWaDKs6ROPmVYa7+iY3VybHgpc2VsZiNqdW1iZj1jMnBhLmFzc2VydGlvbnMvYzJwYS5oYXNoLmRhdGFkaGFzaFggKDLszxLQ1cs7NGHBzZWdyxCOWSYSeh66cesWPk01vvx0Y2xhaW1fZ2VuZXJhdG9yX2luZm+jZG5hbWVvQW50aHJvcGljIEZpbGVzZ3ZlcnNpb25lMS4wLjBrc3BlY1ZlcnNpb25lMi40LjAAABA4anVtYgAAAChqdW1kYzJjcwARABCAAACqADibcQNjMnBhLnNpZ25hdHVyZQAAABAIY2JvctKEWQISogEmGCFZAgowggIGMIIBjaADAgECAhRA5aAK7sI50L64g/oGQgU9Z1UTADAKBggqhkjOPQQDAzBJMRcwFQYDVQQKEw5BbnRocm9waWMsIFBCQzEuMCwGA1UEAxMlQW50aHJvcGljIENvbnRlbnQgQ3JlZGVudGlhbHMgUm9vdCBDQTAeFw0yNjA4MDcxODQzNTZaFw0yODA4MDYxOTQzNTZaMEQxFzAVBgNVBAoTDkFudGhyb3BpYywgUEJDMSkwJwYDVQQDEyBBbnRocm9waWMgQ2xhdWRlIENvbnRlbnQgU2lnbmluZzBZMBMGByqGSM49AgEGCCqGSM49AwEHA0IABJh6CmvLUBgFFNU0vUKlOVtE6djd17L5SuwX0LemFisBM3dkd/3cyjxFA3Qo5S46fX0/ihY0VZ7mfb9KF703t5OjWDBWMA4GA1UdDwEB/wQEAwIHgDAVBgNVHSUEDjAMBgorBgEEAYPoXgIBMAwGA1UdEwEB/wQCMAAwHwYDVR0jBBgwFoAUzlHiBIFOZFsj+OPEz5o+nMHXXMIwCgYIKoZIzj0EAwMDZwAwZAIwMXMdFJ4BetLLVY7ORuE9noqbbAZOZn/aArXyTwFAZfKrPzxF2vPoJNf1+UCdg1XGAjBwX1zd9WGqYkqmL5SFqw1QySjr1zJfpJM9+1rdDwSPLMOPOjKuiXjoU/pUUeG9RwmhY3BhZFkNngAAAAAAAAAAAAAAAAAAAAAAAAAAAAAAAAAAAAAAAAAAAAAAAAAAAAAAAAAAAAAAAAAAAAAAAAAAAAAAAAAAAAAAAAAAAAAAAAAAAAAAAAAAAAAAAAAAAAAAAAAAAAAAAAAAAAAAAAAAAAAAAAAAAAAAAAAAAAAAAAAAAAAAAAAAAAAAAAAAAAAAAAAAAAAAAAAAAAAAAAAAAAAAAAAAAAAAAAAAAAAAAAAAAAAAAAAAAAAAAAAAAAAAAAAAAAAAAAAAAAAAAAAAAAAAAAAAAAAAAAAAAAAAAAAAAAAAAAAAAAAAAAAAAAAAAAAAAAAAAAAAAAAAAAAAAAAAAAAAAAAAAAAAAAAAAAAAAAAAAAAAAAAAAAAAAAAAAAAAAAAAAAAAAAAAAAAAAAAAAAAAAAAAAAAAAAAAAAAAAAAAAAAAAAAAAAAAAAAAAAAAAAAAAAAAAAAAAAAAAAAAAAAAAAAAAAAAAAAAAAAAAAAAAAAAAAAAAAAAAAAAAAAAAAAAAAAAAAAAAAAAAAAAAAAAAAAAAAAAAAAAAAAAAAAAAAAAAAAAAAAAAAAAAAAAAAAAAAAAAAAAAAAAAAAAAAAAAAAAAAAAAAAAAAAAAAAAAAAAAAAAAAAAAAAAAAAAAAAAAAAAAAAAAAAAAAAAAAAAAAAAAAAAAAAAAAAAAAAAAAAAAAAAAAAAAAAAAAAAAAAAAAAAAAAAAAAAAAAAAAAAAAAAAAAAAAAAAAAAAAAAAAAAAAAAAAAAAAAAAAAAAAAAAAAAAAAAAAAAAAAAAAAAAAAAAAAAAAAAAAAAAAAAAAAAAAAAAAAAAAAAAAAAAAAAAAAAAAAAAAAAAAAAAAAAAAAAAAAAAAAAAAAAAAAAAAAAAAAAAAAAAAAAAAAAAAAAAAAAAAAAAAAAAAAAAAAAAAAAAAAAAAAAAAAAAAAAAAAAAAAAAAAAAAAAAAAAAAAAAAAAAAAAAAAAAAAAAAAAAAAAAAAAAAAAAAAAAAAAAAAAAAAAAAAAAAAAAAAAAAAAAAAAAAAAAAAAAAAAAAAAAAAAAAAAAAAAAAAAAAAAAAAAAAAAAAAAAAAAAAAAAAAAAAAAAAAAAAAAAAAAAAAAAAAAAAAAAAAAAAAAAAAAAAAAAAAAAAAAAAAAAAAAAAAAAAAAAAAAAAAAAAAAAAAAAAAAAAAAAAAAAAAAAAAAAAAAAAAAAAAAAAAAAAAAAAAAAAAAAAAAAAAAAAAAAAAAAAAAAAAAAAAAAAAAAAAAAAAAAAAAAAAAAAAAAAAAAAAAAAAAAAAAAAAAAAAAAAAAAAAAAAAAAAAAAAAAAAAAAAAAAAAAAAAAAAAAAAAAAAAAAAAAAAAAAAAAAAAAAAAAAAAAAAAAAAAAAAAAAAAAAAAAAAAAAAAAAAAAAAAAAAAAAAAAAAAAAAAAAAAAAAAAAAAAAAAAAAAAAAAAAAAAAAAAAAAAAAAAAAAAAAAAAAAAAAAAAAAAAAAAAAAAAAAAAAAAAAAAAAAAAAAAAAAAAAAAAAAAAAAAAAAAAAAAAAAAAAAAAAAAAAAAAAAAAAAAAAAAAAAAAAAAAAAAAAAAAAAAAAAAAAAAAAAAAAAAAAAAAAAAAAAAAAAAAAAAAAAAAAAAAAAAAAAAAAAAAAAAAAAAAAAAAAAAAAAAAAAAAAAAAAAAAAAAAAAAAAAAAAAAAAAAAAAAAAAAAAAAAAAAAAAAAAAAAAAAAAAAAAAAAAAAAAAAAAAAAAAAAAAAAAAAAAAAAAAAAAAAAAAAAAAAAAAAAAAAAAAAAAAAAAAAAAAAAAAAAAAAAAAAAAAAAAAAAAAAAAAAAAAAAAAAAAAAAAAAAAAAAAAAAAAAAAAAAAAAAAAAAAAAAAAAAAAAAAAAAAAAAAAAAAAAAAAAAAAAAAAAAAAAAAAAAAAAAAAAAAAAAAAAAAAAAAAAAAAAAAAAAAAAAAAAAAAAAAAAAAAAAAAAAAAAAAAAAAAAAAAAAAAAAAAAAAAAAAAAAAAAAAAAAAAAAAAAAAAAAAAAAAAAAAAAAAAAAAAAAAAAAAAAAAAAAAAAAAAAAAAAAAAAAAAAAAAAAAAAAAAAAAAAAAAAAAAAAAAAAAAAAAAAAAAAAAAAAAAAAAAAAAAAAAAAAAAAAAAAAAAAAAAAAAAAAAAAAAAAAAAAAAAAAAAAAAAAAAAAAAAAAAAAAAAAAAAAAAAAAAAAAAAAAAAAAAAAAAAAAAAAAAAAAAAAAAAAAAAAAAAAAAAAAAAAAAAAAAAAAAAAAAAAAAAAAAAAAAAAAAAAAAAAAAAAAAAAAAAAAAAAAAAAAAAAAAAAAAAAAAAAAAAAAAAAAAAAAAAAAAAAAAAAAAAAAAAAAAAAAAAAAAAAAAAAAAAAAAAAAAAAAAAAAAAAAAAAAAAAAAAAAAAAAAAAAAAAAAAAAAAAAAAAAAAAAAAAAAAAAAAAAAAAAAAAAAAAAAAAAAAAAAAAAAAAAAAAAAAAAAAAAAAAAAAAAAAAAAAAAAAAAAAAAAAAAAAAAAAAAAAAAAAAAAAAAAAAAAAAAAAAAAAAAAAAAAAAAAAAAAAAAAAAAAAAAAAAAAAAAAAAAAAAAAAAAAAAAAAAAAAAAAAAAAAAAAAAAAAAAAAAAAAAAAAAAAAAAAAAAAAAAAAAAAAAAAAAAAAAAAAAAAAAAAAAAAAAAAAAAAAAAAAAAAAAAAAAAAAAAAAAAAAAAAAAAAAAAAAAAAAAAAAAAAAAAAAAAAAAAAAAAAAAAAAAAAAAAAAAAAAAAAAAAAAAAAAAAAAAAAAAAAAAAAAAAAAAAAAAAAAAAAAAAAAAAAAAAAAAAAAAAAAAAAAAAAAAAAAAAAAAAAAAAAAAAAAAAAAAAAAAAAAAAAAAAAAAAAAAAAAAAAAAAAAAAAAAAAAAAAAAAAAAAAAAAAAAAAAAAAAAAAAAAAAAAAAAAAAAAAAAAAAAAAAAAAAAAAAAAAAAAAAAAAAAAAAAAAAAAAAAAAAAAAAAAAAAAAAAAAAAAAAAAAAAAAAAAAAAAAAAAAAAAAAAAAAAAAAAAAAAAAAAAAAAAAAAAAAAAAAAAAAAAAAAAAAAAAAAAAAAAAAAAAAAAAAAAAAAAAAAAAAAAAAAAAAAAAAAAAAAAAAAAAAAAAAAAAAAAAAAAAAAAAAAAAAAAAAAAAAAAAAAAAAAAAAAAAAAAAAAAAAAAAAAAAAAAAAAAAAAAAAAAAAAAAAAAAAAAAAAAAAAAAAAAAAAAAAAAAAAAAAAAAAAAAAAAAAAAAAAAAAAAAAAAAAAAAAAAAAAAAAAAAAAAAAAAAAAAAAAAAAAAAAAAAAAAAAAAAAAAAAAAAAAAAAAAAAAAAAAAAAAAAAAAAAAAAAAAAAAAAAAAAAAAAAAAAAAAAAAAAAAAAAAAAAAAAAAAAAAAAAAAAAAAAAAAAAAAAAAAAAAAAAAAAAAAAAAAAAAAAAAAAAAAAAAAAAAAAAAAAAAAAAAAAAAAAAAAAAAAAAAAAAAAAAAAAAAAAAAAAAAAAAAAAAAAAAAAAAAAAAAAAAAAAAAAAAAAAAAAAAAAAAAAAAAAAAAAAAAAAAAAAAAAAAAAAAAAAAAAAAAAAAAAAAAAAAAAAAAAAAAAAAAAAAAAAAAAAAAAAAAAAAAAAAAAAAAAAAAAAAAAAAAAAAAAAAAAAAAAAAAAAAAAAAAAAAAAAAAAAAAAAAAAAAAAAAAAAAAAAAAAAAAAAAAAAAAAAAAAAAAAAAAAAAAAAAAAAAAAAAAAAAAAAAAAAAAAAAAAAAAAAAAAAAAAAAAAAAAAAAAAAAAAAAAAAAAAAAAAAAAAAAAAAAAAAAAAAAAAAAAAAAAAAAAAAAAAAAAAAAAAAAAAAAAAAAAAAAAAAAAAAAAAAAAAAAAAAAAAAAAAAAAAAAAAAAAAAAAAAAAAAAAAAAAAAAAAAAAAAAAAAAAAAAAAAAAAAAAAAAAAAAAAAAAAAAAAAAAAAAAAAAAAAAAAAAAAAAAAAAAAAAAAAAAAAAAAAAAAAAAAAAAAAAAAAAAAAAAAAAAAAAAAAAAAAAAAAAAAAAAAAAAAAAAAAAAAAAAAAAAAAAAAAAAAAAAAAAAAAAAAAAAAAAAAAAAAAAAAAAAAAAAAAAAAAAAAAAAAAAAAAAAAAAAAAAAAAAAAAAAAAAAAAAAAAAAAAAAAAAAAAAAAAAAAAAAAAAAAAAAAAAAAAAAAAAAAAAAAAAAAAAAAAAAAAAAAAAAAAAAAAAAAAAAAAAAAAAAAAAAAAAAAAAAAAAAAAAAAAAAAAAAAAAAAAAAAAAAAAAAAAAAAAAAAAAAAAAAAAAAAAAAAAAAAAAAAAAAAAAAAAAAAAAAAAAAAAAAAAAAAAAAAAAAAAAAAAAAAAAAAAAAAAAAAAAAAAAAAAAAAAAAAAAAAAAAAAAAAAAAAAAAAAAAAAAAAAAAAAAAAAAAAAAAAAAAAAAAAAAAAAAAAAAAAAAAAAAAAAAAAAAAAAAAAAAAAAAAAAAAAAAAAAAAAAAAAAAAAAAAAAAAAAAAAAAAAAAAAAAAAAAAAAAAAAAAAAAAAAAAAAAAAAAAAAAAAAAAAAAAAAAAAAAAAAAAAAAAAAAAAAAAAAAAAAAAAAAAAAAAAAAAAAAAAAAAAAAAAAAAAAAAAAAAAAAAAAAAAAAAAAAAAPZYQHKL1sWZG3BujSgcl5jLTrKZeGrLD7O3aaRH2wQjsg95vfPbUyVpXILEzzKt0pDZfoLWDBJQbEH7RtfAcSAqUDs=</c2pa:manifest></metadata><title>XENO PDF file</title><defs><clipPath id="u"><path d="M -10 -10 L 122 -10 L -10 122 Z"></path></clipPath></defs><path d="M 6 0 L 100 0 L 100 84 L 84 100 L 0 100 L 0 6 A 6 6 0 0 1 6 0 Z" fill="#0B0B0B"></path><g clip-path="url(#u)" fill="#72A2FF"><path transform="translate(9.00 88) scale(0.044 -0.044)" d="M85 0L85 688L615 688Q683 688 733.5 658Q784 628 812.5 575.5Q841 523 841 454Q841 385 812 331.5Q783 278 732 248.5Q681 219 613 219L288 219L288 0ZM288 370L557 370Q602 370 625.5 391.5Q649 413 649 453Q649 480 638 498.5Q627 517 607 527Q587 537 557 537L288 537Z"></path><path transform="translate(44.99 88) scale(0.044 -0.044)" d="M319 -12Q239 -12 176.5 17.5Q114 47 78 108.5Q42 170 42 264Q42 358 78 419Q114 480 175.5 510Q237 540 315 540Q350 540 386 532Q422 524 453.5 507.5Q485 491 507 465L515 465L515 725L700 725L700 0L550 0L536 82L527 82Q488 30 434 9Q380 -12 319 -12ZM373 126Q421 126 452.5 143Q484 160 500 190Q516 220 516 260L516 267Q516 297 507 322Q498 347 480 364.5Q462 382 435 392Q408 402 372 402Q325 402 293.5 385.5Q262 369 246 340Q230 311 230 272L230 255Q230 217 246.5 187.5Q263 158 294.5 142Q326 126 373 126Z"></path></g><g fill="#90C2FF"><rect x="66.92" y="56.92" width="2.83" height="2.83"></rect><rect x="70.25" y="56.92" width="2.83" height="2.83"></rect><rect x="73.58" y="56.92" width="2.83" height="2.83"></rect><rect x="66.92" y="60.25" width="2.83" height="2.83"></rect><rect x="70.25" y="60.25" width="2.83" height="2.83"></rect><rect x="73.58" y="60.25" width="2.83" height="2.83"></rect><rect x="53.58" y="63.58" width="2.83" height="2.83"></rect><rect x="56.92" y="63.58" width="2.83" height="2.83"></rect><rect x="60.25" y="63.58" width="2.83" height="2.83"></rect><rect x="66.92" y="63.58" width="2.83" height="2.83"></rect><rect x="70.25" y="63.58" width="2.83" height="2.83"></rect><rect x="73.58" y="63.58" width="2.83" height="2.83"></rect><rect x="43.58" y="66.92" width="2.83" height="2.83"></rect><rect x="50.25" y="66.92" width="2.83" height="2.83"></rect><rect x="53.58" y="66.92" width="2.83" height="2.83"></rect><rect x="56.92" y="66.92" width="2.83" height="2.83"></rect><rect x="60.25" y="66.92" width="2.83" height="2.83"></rect><rect x="63.58" y="66.92" width="2.83" height="2.83"></rect><rect x="66.92" y="66.92" width="2.83" height="2.83"></rect><rect x="70.25" y="66.92" width="2.83" height="2.83"></rect><rect x="73.58" y="66.92" width="2.83" height="2.83"></rect><rect x="40.25" y="70.25" width="2.83" height="2.83"></rect><rect x="43.58" y="70.25" width="2.83" height="2.83"></rect><rect x="46.92" y="70.25" width="2.83" height="2.83"></rect><rect x="50.25" y="70.25" width="2.83" height="2.83"></rect><rect x="53.58" y="70.25" width="2.83" height="2.83"></rect><rect x="63.58" y="70.25" width="2.83" height="2.83"></rect><rect x="66.92" y="70.25" width="2.83" height="2.83"></rect><rect x="70.25" y="70.25" width="2.83" height="2.83"></rect><rect x="73.58" y="70.25" width="2.83" height="2.83"></rect><rect x="36.92" y="73.58" width="2.83" height="2.83"></rect><rect x="40.25" y="73.58" width="2.83" height="2.83"></rect><rect x="46.92" y="73.58" width="2.83" height="2.83"></rect><rect x="50.25" y="73.58" width="2.83" height="2.83"></rect><rect x="53.58" y="73.58" width="2.83" height="2.83"></rect><rect x="66.92" y="73.58" width="2.83" height="2.83"></rect><rect x="70.25" y="73.58" width="2.83" height="2.83"></rect><rect x="73.58" y="73.58" width="2.83" height="2.83"></rect><rect x="33.58" y="76.92" width="2.83" height="2.83"></rect><rect x="46.92" y="76.92" width="2.83" height="2.83"></rect><rect x="50.25" y="76.92" width="2.83" height="2.83"></rect><rect x="53.58" y="76.92" width="2.83" height="2.83"></rect><rect x="66.92" y="76.92" width="2.83" height="2.83"></rect><rect x="70.25" y="76.92" width="2.83" height="2.83"></rect><rect x="73.58" y="76.92" width="2.83" height="2.83"></rect><rect x="46.92" y="80.25" width="2.83" height="2.83"></rect><rect x="50.25" y="80.25" width="2.83" height="2.83"></rect><rect x="53.58" y="80.25" width="2.83" height="2.83"></rect><rect x="56.92" y="80.25" width="2.83" height="2.83"></rect><rect x="63.58" y="80.25" width="2.83" height="2.83"></rect><rect x="66.92" y="80.25" width="2.83" height="2.83"></rect><rect x="70.25" y="80.25" width="2.83" height="2.83"></rect><rect x="73.58" y="80.25" width="2.83" height="2.83"></rect><rect x="50.25" y="83.58" width="2.83" height="2.83"></rect><rect x="53.58" y="83.58" width="2.83" height="2.83"></rect><rect x="56.92" y="83.58" width="2.83" height="2.83"></rect><rect x="60.25" y="83.58" width="2.83" height="2.83"></rect><rect x="63.58" y="83.58" width="2.83" height="2.83"></rect><rect x="66.92" y="83.58" width="2.83" height="2.83"></rect><rect x="70.25" y="83.58" width="2.83" height="2.83"></rect><rect x="73.58" y="83.58" width="2.83" height="2.83"></rect><rect x="56.92" y="86.92" width="2.83" height="2.83"></rect><rect x="60.25" y="86.92" width="2.83" height="2.83"></rect></g></svg>